<?xml version="1.0" standalone="no"?>
<!DOCTYPE svg PUBLIC "-//W3C//DTD SVG 20010904//EN"
 "http://www.w3.org/TR/2001/REC-SVG-20010904/DTD/svg10.dtd">
<svg version="1.0" xmlns="http://www.w3.org/2000/svg"
 width="700.000000pt" height="700.000000pt" viewBox="0 0 700.000000 700.000000"
 preserveAspectRatio="xMidYMid meet">
<metadata>
Created by potrace 1.14, written by Peter Selinger 2001-2017
</metadata>
<g transform="translate(0.000000,700.000000) scale(0.100000,-0.100000)"
fill="#000000" stroke="none">
<path d="M3577 6044 c-1 -1 -38 -5 -82 -8 -112 -9 -156 -14 -185 -22 -14 -3
-36 -8 -50 -10 -14 -3 -74 -18 -135 -34 -328 -85 -593 -220 -880 -445 -135
-106 -272 -246 -260 -266 5 -7 42 2 190 46 44 13 94 27 110 30 17 3 64 13 105
21 46 9 155 16 280 19 249 5 326 -4 545 -60 176 -45 253 -74 430 -160 292
-142 529 -319 820 -610 264 -264 356 -392 428 -592 30 -82 53 -169 62 -230 3
-23 8 -57 11 -75 6 -42 6 -216 0 -244 -2 -12 -7 -45 -11 -75 -20 -155 -135
-438 -215 -527 -8 -10 -33 -40 -55 -67 -103 -128 -247 -245 -380 -310 -105
-51 -153 -68 -290 -104 -55 -14 -100 -31 -99 -36 1 -16 72 -60 161 -98 165
-73 337 -121 478 -134 100 -9 367 -10 460 -1 115 11 279 63 420 133 147 73
157 78 274 158 162 109 191 152 191 284 0 63 14 58 25 -9 8 -47 17 -53 53 -34
24 12 420 404 613 606 148 156 300 318 327 350 17 19 42 48 56 64 14 18 22 35
18 43 -14 25 -313 337 -915 957 -348 357 -797 804 -918 911 -106 95 -343 248
-494 319 -132 62 -335 133 -445 155 -93 19 -103 21 -165 27 -33 4 -63 8 -66
10 -7 4 -408 21 -412 18z m1978 -1304 c4 -6 2 -25 -4 -43 -28 -86 -19 -176 19
-197 10 -5 44 -10 74 -10 31 0 56 -4 56 -9 0 -5 -11 -22 -24 -38 -38 -46 -44
-65 -42 -131 0 -34 -2 -62 -6 -62 -5 0 -8 9 -8 19 0 11 -4 22 -8 25 -7 4 -10
-124 -4 -186 3 -24 23 -23 29 2 8 31 19 24 38 -27 12 -30 39 -66 79 -104 84
-81 55 -74 -46 11 -46 38 -91 70 -100 70 -32 0 -41 38 -39 174 1 71 -1 128 -3
125 -9 -9 -44 -183 -50 -244 -6 -65 -7 -66 -95 -117 -62 -35 -87 -69 -72 -97
16 -30 37 -26 115 19 100 58 102 59 190 5 42 -25 92 -49 110 -52 27 -4 35 -11
39 -33 4 -15 17 -44 31 -64 32 -47 37 -88 41 -356 2 -124 6 -238 10 -255 4
-16 19 -42 33 -57 27 -30 20 -37 -13 -14 -11 7 -85 47 -165 89 -128 66 -151
74 -192 72 l-46 -3 14 34 c8 18 14 59 14 90 0 68 5 68 14 0 4 -27 12 -58 18
-69 10 -19 11 -19 20 -3 5 10 12 75 14 144 2 70 6 141 9 159 6 36 70 97 112
108 30 7 41 -6 90 -107 18 -38 35 -68 38 -68 9 0 3 162 -7 190 -11 31 -59 76
-163 153 -73 54 -80 57 -92 41 -7 -10 -13 -26 -13 -35 0 -10 -4 -20 -9 -23 -5
-3 -9 0 -8 7 1 36 -4 57 -14 57 -6 0 -53 -28 -103 -61 -158 -107 -163 -115
-165 -323 0 -55 -3 -97 -6 -94 -9 8 -11 200 -4 256 5 32 19 71 35 95 20 31 28
56 30 97 1 30 2 58 3 62 1 4 26 22 57 40 31 18 65 44 75 58 18 24 40 117 54
229 4 30 8 62 10 72 2 10 -10 44 -27 76 -35 65 -60 133 -50 133 4 0 18 -25 30
-54 27 -62 47 -84 83 -89 27 -5 83 12 74 22 -4 3 -9 5 -11 3 -3 -2 -23 7 -45
20 -53 30 -68 63 -66 148 l2 69 -29 -27 -28 -27 7 25 c19 62 72 109 90 80z
m-100 -1038 c11 -10 34 -33 50 -51 22 -24 24 -31 10 -23 -11 5 -29 20 -39 31
-30 33 -57 26 -94 -24 -43 -57 -58 -110 -61 -215 -3 -109 -8 -178 -15 -212 -8
-35 1 -35 64 -3 93 47 85 25 -10 -27 -93 -52 -132 -82 -143 -109 -3 -8 -6 0
-6 18 -1 19 8 42 23 60 42 51 52 85 61 223 12 175 33 251 91 319 29 35 41 38
69 13z m200 -601 c24 -16 40 -35 40 -47 -1 -15 6 -19 36 -20 46 -2 164 -59
190 -92 14 -18 19 -40 19 -87 0 -69 -6 -82 -29 -61 -9 8 -32 16 -51 18 -27 2
-36 8 -38 24 -2 11 4 27 13 34 15 12 15 11 4 -13 -14 -32 -5 -46 19 -31 48 30
9 80 -117 151 l-63 35 6 -51 c4 -31 3 -50 -3 -47 -9 6 -23 66 -26 114 -2 29
-6 31 -32 21 -29 -11 -30 -51 -3 -101 14 -27 16 -36 6 -32 -20 8 -27 -9 -33
-84 -6 -79 -13 -94 -14 -31 -2 130 -10 160 -39 134 -14 -13 -23 -14 -38 -6
-27 14 -39 51 -21 62 9 6 15 3 17 -6 5 -20 28 -19 36 1 3 8 11 12 17 8 6 -3
15 -1 19 6 10 17 1 50 -15 50 -31 0 -198 -71 -227 -97 -16 -14 -16 -17 -1 -40
l17 -25 -42 21 c-46 23 -49 20 -27 -23 14 -26 14 -31 1 -38 -15 -8 -23 -59
-29 -170 -5 -95 -12 -73 -15 45 -3 135 -16 214 -39 239 -22 24 -13 31 67 52
36 9 115 39 175 66 129 57 164 61 220 21z m-252 -191 c3 -11 1 -20 -4 -20 -10
0 -29 33 -29 51 0 18 27 -7 33 -31z m57 10 c0 -5 -4 -10 -10 -10 -5 0 -10 5
-10 10 0 6 5 10 10 10 6 0 10 -4 10 -10z m304 -44 c22 8 20 1 -4 -21 -19 -17
-20 -17 -34 16 -8 18 -11 39 -8 47 3 9 9 4 18 -17 9 -21 18 -29 28 -25z m16
44 c0 -5 -4 -10 -10 -10 -5 0 -10 5 -10 10 0 6 5 10 10 10 6 0 10 -4 10 -10z
m-435 -70 c-3 -5 -10 -10 -16 -10 -5 0 -9 5 -9 10 0 6 7 10 16 10 8 0 12 -4 9
-10z"/>
<path d="M5674 3658 c-45 -43 -54 -81 -51 -239 2 -111 5 -130 22 -149 25 -28
120 -74 138 -67 16 6 21 61 20 230 -1 116 -4 133 -27 180 -14 29 -34 58 -46
65 -18 11 -24 8 -56 -20z"/>
<path d="M5498 3084 c-16 -8 -28 -19 -28 -23 0 -13 31 -3 60 19 30 24 8 26
-32 4z"/>
<path d="M5612 3084 c10 -10 20 -15 24 -12 3 4 -5 12 -18 18 -22 12 -22 12 -6
-6z"/>
<path d="M5362 3024 c-54 -27 -72 -51 -25 -33 31 12 93 48 93 55 0 9 -18 3
-68 -22z"/>
<path d="M5745 3010 c7 -11 105 -70 118 -70 22 0 0 21 -52 49 -62 33 -76 37
-66 21z"/>
<path d="M5235 2970 c-3 -5 3 -10 14 -10 12 0 21 5 21 10 0 6 -6 10 -14 10 -8
0 -18 -4 -21 -10z"/>
<path d="M5900 2920 c0 -5 5 -10 10 -10 6 0 10 5 10 10 0 6 -4 10 -10 10 -5 0
-10 -4 -10 -10z"/>
<path d="M2030 4966 c-3 -2 -36 -7 -75 -10 -91 -8 -121 -16 -230 -56 -80 -29
-202 -88 -306 -148 -20 -11 -47 -26 -60 -34 -49 -28 -136 -94 -194 -147 -99
-91 -719 -715 -890 -895 -88 -93 -169 -179 -180 -190 -11 -12 -37 -41 -58 -64
l-38 -43 26 -35 c15 -19 36 -45 48 -57 12 -12 42 -45 66 -72 195 -223 966
-1014 976 -1003 9 9 9 127 1 406 -5 193 -4 204 15 223 30 30 36 55 38 164 9
484 9 479 43 525 20 28 25 46 31 128 6 63 12 71 99 127 37 25 68 48 68 53 0 4
16 14 34 20 45 16 50 38 47 172 l-1 45 -20 -25 -20 -25 0 40 c0 24 -10 56 -25
80 -73 121 -79 149 -45 220 22 45 64 75 104 75 l26 0 -25 -47 c-14 -27 -25
-60 -25 -74 0 -38 35 -77 80 -89 51 -14 57 -26 30 -63 -28 -36 -28 -63 -1
-161 25 -91 63 -179 98 -224 l26 -34 -24 13 c-13 7 -48 28 -77 47 -32 22 -64
35 -82 34 -35 -1 -192 -93 -221 -130 -23 -30 -27 -110 -5 -118 12 -5 100 41
136 72 9 7 32 20 51 28 33 14 39 13 87 -9 28 -13 78 -42 111 -64 33 -23 65
-41 70 -41 7 0 9 24 6 65 -2 36 1 67 5 70 11 7 18 -20 24 -90 2 -28 11 -71 19
-95 17 -49 24 -106 32 -250 19 -336 26 -393 55 -425 11 -11 21 -43 25 -72 6
-59 -9 -73 -19 -18 -9 46 -47 73 -171 121 -55 21 -104 39 -110 40 -5 1 -14 3
-20 4 -37 8 -45 0 -45 -48 0 -26 7 -57 15 -69 10 -14 65 -41 150 -74 143 -55
172 -76 185 -134 9 -42 7 -402 -3 -412 -15 -14 -18 9 -22 167 -2 90 -9 168
-14 173 -5 5 -17 4 -30 -3 -34 -18 -44 -3 -38 57 4 42 2 55 -9 60 -17 6 -46
-15 -38 -28 8 -13 -10 -11 -23 2 -14 14 -33 3 -33 -17 0 -20 30 -30 42 -13 8
12 9 11 5 -1 -5 -20 -47 -19 -60 2 -12 18 7 41 63 80 l25 17 -32 -6 c-27 -4
-33 -2 -33 12 0 14 -6 16 -35 11 -28 -6 -35 -4 -35 9 0 16 -27 20 -47 7 -27
-17 -35 -79 -37 -289 0 -100 -8 -101 -12 -1 -7 169 -16 274 -24 282 -8 8 -131
-25 -160 -43 -12 -8 -10 -15 14 -40 31 -32 27 -53 -13 -64 -29 -7 -45 9 -46
45 0 26 -4 33 -20 33 -17 0 -20 -6 -19 -49 0 -48 0 -49 -15 -26 -9 14 -26 33
-38 44 -28 24 -29 36 -4 36 11 0 23 5 26 11 9 14 -63 3 -82 -13 -10 -8 -11
-14 -1 -25 8 -10 12 -70 14 -181 3 -216 7 -238 55 -314 47 -72 517 -546 667
-671 94 -78 112 -91 252 -177 203 -125 489 -230 788 -290 189 -38 399 -41 647
-10 44 6 91 12 105 15 14 3 39 8 55 11 222 40 606 192 772 305 23 16 44 29 47
29 29 0 298 222 394 324 52 56 90 106 80 106 -2 0 -61 -20 -133 -44 -71 -24
-146 -47 -165 -50 -62 -10 -94 -16 -141 -26 -129 -26 -404 -32 -549 -11 -239
35 -542 134 -760 249 -81 43 -262 161 -356 233 -242 184 -512 449 -654 639
-94 127 -199 364 -214 486 -42 331 -15 552 96 791 67 145 246 353 389 455 136
97 319 174 484 203 49 8 90 17 93 19 7 8 -260 134 -360 171 -91 33 -181 58
-260 71 -41 7 -452 16 -458 10z m-585 -1046 c-8 -40 -15 -35 -15 11 1 32 3 40
10 28 5 -9 7 -26 5 -39z m181 -1267 c-10 -10 -19 5 -10 18 6 11 8 11 12 0 2
-7 1 -15 -2 -18z m-159 11 c-10 -11 -58 -13 -51 -3 3 5 17 9 31 9 15 0 23 -3
20 -6z m123 -4 c0 -5 -4 -10 -9 -10 -6 0 -13 5 -16 10 -3 6 1 10 9 10 9 0 16
-4 16 -10z m-120 -72 c0 -13 -36 -9 -49 5 -6 8 -8 17 -5 20 8 7 54 -14 54 -25z
m146 21 c8 -14 -18 -31 -30 -19 -9 9 0 30 14 30 5 0 12 -5 16 -11z m-406 -57
c0 -27 -25 -5 -28 24 -3 28 -3 28 12 9 8 -11 16 -26 16 -33z"/>
<path d="M1410 4375 c-30 -48 -35 -95 -16 -133 30 -58 128 -105 142 -68 7 19
3 26 -18 30 -57 9 -88 65 -82 148 2 32 2 58 0 58 -2 0 -14 -16 -26 -35z"/>
<path d="M3349 4390 c-165 -23 -317 -100 -443 -223 -112 -111 -157 -180 -219
-337 -47 -120 -61 -226 -55 -410 1 -43 32 -161 59 -229 60 -152 189 -321 287
-378 l45 -27 18 23 c19 23 21 35 24 160 1 48 -2 67 -15 80 -27 25 -30 48 -31
188 -1 197 21 232 230 356 155 92 221 157 221 217 0 12 -18 40 -40 62 -22 23
-40 52 -41 65 -1 12 -2 31 -2 41 -2 46 16 92 50 126 20 20 38 34 41 31 3 -2 4
-39 3 -82 -1 -50 3 -85 11 -96 8 -11 39 -22 81 -30 l67 -12 -40 -34 c-91 -75
-62 -122 165 -274 130 -86 180 -135 211 -202 38 -82 38 -138 -1 -261 -5 -16
-2 -23 14 -27 28 -7 27 -15 -11 -73 -30 -43 -33 -56 -33 -120 0 -77 17 -124
45 -124 29 0 144 115 202 202 133 199 148 256 145 538 -3 197 -4 208 -31 279
-47 125 -102 213 -192 310 -120 130 -288 229 -434 256 -61 11 -263 14 -331 5z"/>
<path d="M1523 3952 c2 -67 19 -108 39 -96 15 10 -15 164 -33 164 -4 0 -7 -31
-6 -68z"/>
<path d="M3486 3776 c-19 -45 -87 -118 -142 -153 -25 -16 -47 -38 -50 -50 -4
-13 -12 -23 -19 -23 -6 0 -40 -18 -75 -41 -35 -22 -72 -41 -82 -42 -16 -1 -19
-7 -14 -30 5 -23 3 -28 -9 -23 -16 6 -18 -1 -16 -49 1 -25 0 -27 -9 -12 -21
34 -29 16 -28 -65 1 -95 12 -135 39 -143 48 -15 185 -21 487 -20 370 1 378 2
399 68 23 70 18 159 -13 218 -36 70 -99 123 -229 194 -96 52 -149 97 -182 155
-15 28 -31 50 -35 50 -4 0 -14 -15 -22 -34z"/>
<path d="M1384 3612 c-138 -89 -170 -137 -178 -267 -10 -171 -9 -425 3 -443 6
-11 29 -7 112 19 127 39 205 75 224 103 15 20 15 20 15 1 1 -35 33 -64 105
-94 78 -33 104 -29 106 17 3 122 17 203 20 119 1 -21 3 -41 4 -47 1 -5 3 -25
4 -42 1 -19 5 -28 9 -21 4 6 6 61 6 123 -2 123 -14 169 -71 258 -18 29 -33 55
-33 58 0 2 -9 15 -21 27 l-21 22 -37 -42 c-41 -45 -71 -129 -71 -196 0 -20 -4
-37 -8 -37 -15 0 -4 147 13 180 24 46 85 110 105 110 11 0 37 -28 66 -70 26
-38 50 -68 52 -65 3 2 4 32 3 65 -2 101 -23 133 -145 218 -114 81 -114 81
-132 -283 -3 -71 -8 -132 -10 -134 -2 -2 -4 65 -5 150 -1 255 -9 309 -43 309
-7 0 -40 -17 -72 -38z m1 -181 c36 -22 85 -70 85 -84 0 -10 -18 2 -61 40 -14
13 -39 25 -55 26 -26 2 -33 -6 -75 -76 -55 -92 -63 -102 -54 -62 13 53 95 175
118 175 7 0 26 -8 42 -19z m405 -311 c0 -5 -5 -10 -11 -10 -5 0 -7 5 -4 10 3
6 8 10 11 10 2 0 4 -4 4 -10z"/>
<path d="M3345 3090 c-2 -3 48 -5 111 -5 63 -1 114 2 114 5 0 7 -220 8 -225 0z"/>
<path d="M3583 3093 c9 -8 47 -11 47 -4 0 5 -11 9 -25 9 -14 0 -24 -2 -22 -5z"/>
<path d="M3645 3090 c-2 -3 9 -6 25 -5 15 0 26 3 24 7 -5 8 -44 6 -49 -2z"/>
<path d="M3154 3039 c-51 -15 -59 -32 -61 -142 -2 -76 -6 -104 -19 -118 -21
-24 -12 -36 49 -63 155 -70 185 -78 296 -78 183 -2 331 19 415 57 86 39 89 46
84 179 -5 132 -13 147 -81 164 -52 13 -639 14 -683 1z m465 -18 c17 -11 24
-131 10 -183 -11 -44 -35 -50 -49 -12 -21 53 -8 204 17 204 5 0 14 -4 22 -9z
m-443 -23 c21 -62 27 -170 11 -192 -15 -21 -43 -13 -50 14 -6 25 -6 155 0 180
7 27 30 25 39 -2z m115 0 c15 -29 15 -148 0 -176 -27 -51 -44 -13 -43 100 0
43 4 82 7 88 10 16 23 12 36 -12z m121 -13 c10 -39 3 -164 -11 -178 -23 -23
-36 12 -37 101 0 48 1 93 4 100 8 23 35 8 44 -23z m104 13 c10 -33 7 -150 -6
-182 l-11 -30 -21 21 c-17 17 -21 33 -20 82 0 101 38 172 58 109z m230 11 c11
-19 6 -177 -7 -201 l-12 -22 -18 23 c-22 27 -26 112 -8 174 10 36 31 48 45 26z
m120 -25 c10 -52 -2 -176 -18 -185 -8 -5 -19 -2 -28 7 -18 18 -19 144 -2 187
16 39 40 34 48 -9z"/>
<path d="M3598 2943 c-2 -16 -1 -41 3 -58 5 -23 7 -16 8 28 1 60 -4 75 -11 30z"/>
<path d="M3161 2909 c0 -41 3 -57 8 -44 8 21 6 94 -4 103 -3 3 -5 -24 -4 -59z"/>
<path d="M3279 2958 c0 -7 -2 -28 -3 -45 -1 -18 1 -38 6 -45 4 -8 8 11 8 45 0
31 -2 57 -5 57 -3 0 -5 -6 -6 -12z"/>
<path d="M3391 2955 c0 -35 1 -37 10 -17 6 15 5 30 -1 40 -7 13 -9 8 -9 -23z"/>
<path d="M3719 2958 c-5 -13 -4 -88 1 -88 4 0 7 20 7 45 0 38 -3 54 -8 43z"/>
<path d="M3831 2909 c0 -38 3 -57 8 -45 7 19 5 96 -4 104 -3 3 -5 -24 -4 -59z"/>
<path d="M1425 2929 c-173 -63 -272 -110 -285 -134 -15 -29 -16 -83 -1 -98 14
-14 129 -12 193 2 67 15 166 54 147 58 -9 2 -51 -8 -95 -23 -91 -30 -114 -36
-114 -26 0 4 46 25 102 47 67 26 108 49 120 65 18 25 31 110 19 128 -4 6 -39
-2 -86 -19z"/>
<path d="M1545 2760 c-3 -5 -1 -10 4 -10 6 0 11 5 11 10 0 6 -2 10 -4 10 -3 0
-8 -4 -11 -10z"/>
<path d="M1800 2660 c0 -5 7 -10 15 -10 8 0 15 5 15 10 0 6 -7 10 -15 10 -8 0
-15 -4 -15 -10z"/>
<path d="M1316 2614 c-7 -19 1 -34 19 -34 18 0 26 25 12 39 -15 15 -24 14 -31
-5z"/>
<path d="M1811 2606 c-16 -19 -22 -54 -11 -61 11 -7 60 45 60 62 0 17 -35 16
-49 -1z"/>
</g>
</svg>
