<?xml version="1.0" encoding="UTF-8" standalone="no"?>
<!-- Created with Inkscape (http://www.inkscape.org/) -->

<svg
   width="16mm"
   height="16mm"
   viewBox="0 0 79.433746 60.704071"
   version="1.1"
   id="svg5"
   xml:space="preserve"
   inkscape:export-filename="bitmap.svg"
   inkscape:export-xdpi="96"
   inkscape:export-ydpi="96"
   xmlns:inkscape="http://www.inkscape.org/namespaces/inkscape"
   xmlns:sodipodi="http://sodipodi.sourceforge.net/DTD/sodipodi-0.dtd"
   xmlns="http://www.w3.org/2000/svg"
   xmlns:svg="http://www.w3.org/2000/svg"><sodipodi:namedview
     id="namedview7"
     pagecolor="#ffffff"
     bordercolor="#000000"
     borderopacity="0.25"
     inkscape:showpageshadow="2"
     inkscape:pageopacity="0.0"
     inkscape:pagecheckerboard="0"
     inkscape:deskcolor="#d1d1d1"
     inkscape:document-units="mm"
     showgrid="false" /><defs
     id="defs2" /><g
     inkscape:label="Layer 1"
     inkscape:groupmode="layer"
     id="layer1"
     transform="translate(198.47553,-57.630263)"><g
       id="g2915"
       transform="translate(-272.73855,-26.30367)"
       style="fill:#ffffff"><path
         style="fill:#ffffff;fill-opacity:1;stroke-width:0.281838"
         d="m 101.57708,144.4955 c 0,-0.0784 0.0627,-0.1425 0.13936,-0.1425 0.0767,0 0.13936,0.0641 0.13936,0.1425 0,0.0784 -0.0627,0.1425 -0.13936,0.1425 -0.0766,0 -0.13936,-0.0641 -0.13936,-0.1425 z m 14.21446,0 c 0,-0.0784 0.0627,-0.1425 0.13936,-0.1425 0.0767,0 0.13936,0.0641 0.13936,0.1425 0,0.0784 -0.0627,0.1425 -0.13936,0.1425 -0.0766,0 -0.13936,-0.0641 -0.13936,-0.1425 z m 1.67229,-0.56999 c 0,-0.0784 0.0627,-0.1425 0.13936,-0.1425 0.0767,0 0.13936,0.0641 0.13936,0.1425 0,0.0784 -0.0627,0.1425 -0.13936,0.1425 -0.0767,0 -0.13936,-0.0641 -0.13936,-0.1425 z m 0.83615,-0.285 c 0,-0.0784 0.0627,-0.1425 0.13936,-0.1425 0.0766,0 0.13935,0.0641 0.13935,0.1425 0,0.0784 -0.0627,0.1425 -0.13935,0.1425 -0.0767,0 -0.13936,-0.0641 -0.13936,-0.1425 z m 0.83614,-0.28499 c 0,-0.0784 0.0627,-0.1425 0.13936,-0.1425 0.0767,0 0.13936,0.0641 0.13936,0.1425 0,0.0784 -0.0627,0.14249 -0.13936,0.14249 -0.0767,0 -0.13936,-0.0641 -0.13936,-0.14249 z m 0.55743,-0.285 c 0,-0.0784 0.0627,-0.1425 0.13936,-0.1425 0.0767,0 0.13936,0.0641 0.13936,0.1425 0,0.0784 -0.0627,0.1425 -0.13936,0.1425 -0.0767,0 -0.13936,-0.0641 -0.13936,-0.1425 z m -26.477913,-2.27996 c 0,-0.0784 0.06271,-0.1425 0.139358,-0.1425 0.07665,0 0.139357,0.0641 0.139357,0.1425 0,0.0784 -0.06271,0.14249 -0.139357,0.14249 -0.07665,0 -0.139358,-0.0641 -0.139358,-0.14249 z m 31.216073,-0.285 c 0,-0.0784 0.0627,-0.1425 0.13935,-0.1425 0.0767,0 0.13936,0.0641 0.13936,0.1425 0,0.0784 -0.0627,0.1425 -0.13936,0.1425 -0.0766,0 -0.13935,-0.0641 -0.13935,-0.1425 z m -32.330932,-0.56999 c 0,-0.0784 0.06271,-0.1425 0.139357,-0.1425 0.07665,0 0.139358,0.0641 0.139358,0.1425 0,0.0784 -0.06271,0.1425 -0.139358,0.1425 -0.07665,0 -0.139357,-0.0641 -0.139357,-0.1425 z m -1.11486,-0.85499 c 0,-0.0784 0.06271,-0.1425 0.139358,-0.1425 0.07665,0 0.139357,0.0641 0.139357,0.1425 0,0.0784 -0.06271,0.1425 -0.139357,0.1425 -0.07665,0 -0.139358,-0.0641 -0.139358,-0.1425 z m 28.150202,-1.70997 c 0,-0.0784 0.0627,-0.1425 0.13936,-0.1425 0.0767,0 0.13936,0.0641 0.13936,0.1425 0,0.0784 -0.0627,0.1425 -0.13936,0.1425 -0.0767,0 -0.13936,-0.0641 -0.13936,-0.1425 z m 2.50844,0 c 0,-0.0784 0.0627,-0.1425 0.13935,-0.1425 0.0767,0 0.13936,0.0641 0.13936,0.1425 0,0.0784 -0.0627,0.1425 -0.13936,0.1425 -0.0766,0 -0.13935,-0.0641 -0.13935,-0.1425 z m -33.333048,-0.75652 c -0.123214,-0.20386 -0.07646,-0.25167 0.122908,-0.12568 0.176978,0.11184 0.321779,0.25991 0.321779,0.32903 0,0.0691 -0.05531,0.12568 -0.122908,0.12568 -0.0676,0 -0.2124,-0.14807 -0.321779,-0.32903 z m 37.513768,0.18653 c 0,-0.0784 0.0627,-0.1425 0.13936,-0.1425 0.0766,0 0.13936,0.0641 0.13936,0.1425 0,0.0784 -0.0627,0.1425 -0.13936,0.1425 -0.0767,0 -0.13936,-0.0641 -0.13936,-0.1425 z m 3.06586,0 c 0,-0.0784 0.0627,-0.1425 0.13936,-0.1425 0.0767,0 0.13936,0.0641 0.13936,0.1425 0,0.0784 -0.0627,0.1425 -0.13936,0.1425 -0.0766,0 -0.13936,-0.0641 -0.13936,-0.1425 z m -14.77188,-0.285 c 0,-0.0784 0.0627,-0.1425 0.13935,-0.1425 0.0767,0 0.13936,0.0641 0.13936,0.1425 0,0.0784 -0.0627,0.1425 -0.13936,0.1425 -0.0766,0 -0.13935,-0.0641 -0.13935,-0.1425 z m -28.15021,-2.27996 c 0,-0.0784 0.06271,-0.1425 0.139358,-0.1425 0.07665,0 0.139357,0.0641 0.139357,0.1425 0,0.0784 -0.06271,0.1425 -0.139357,0.1425 -0.07665,0 -0.139358,-0.0641 -0.139358,-0.1425 z m 21.46105,-0.56999 c 0,-0.0784 0.0627,-0.1425 0.13935,-0.1425 0.0767,0 0.13936,0.0641 0.13936,0.1425 0,0.0784 -0.0627,0.14249 -0.13936,0.14249 -0.0766,0 -0.13935,-0.0641 -0.13935,-0.14249 z m -23.168892,-1.21124 c -0.346685,-0.45202 -0.336827,-0.4621 0.105231,-0.1076 0.268264,0.21513 0.487751,0.43956 0.487751,0.49874 0,0.0592 -0.04735,0.10761 -0.105231,0.10761 -0.05787,0 -0.277363,-0.22444 -0.487751,-0.49875 z m 39.334352,-0.21374 c 0,-0.0784 0.0627,-0.1425 0.13936,-0.1425 0.0767,0 0.13936,0.0641 0.13936,0.1425 0,0.0784 -0.0627,0.1425 -0.13936,0.1425 -0.0767,0 -0.13936,-0.0641 -0.13936,-0.1425 z m 6.13173,0 c 0,-0.0784 0.0627,-0.1425 0.13936,-0.1425 0.0766,0 0.13935,0.0641 0.13935,0.1425 0,0.0784 -0.0627,0.1425 -0.13935,0.1425 -0.0767,0 -0.13936,-0.0641 -0.13936,-0.1425 z m -7.5253,-0.285 c 0,-0.0784 0.0627,-0.1425 0.13935,-0.1425 0.0767,0 0.13936,0.0641 0.13936,0.1425 0,0.0784 -0.0627,0.1425 -0.13936,0.1425 -0.0766,0 -0.13935,-0.0641 -0.13935,-0.1425 z m -39.602937,-3.63302 c 0.06267,-1.29354 0.149848,-2.15951 0.193737,-1.92439 0.04389,0.23512 0.123981,1.29317 0.177985,2.35121 0.06197,1.21415 -0.0095,1.92397 -0.193738,1.92439 -0.189075,5.7e-4 -0.25178,-0.82794 -0.177984,-2.35121 z m 4.807578,1.78055 c 0,-0.39187 0.06326,-0.55218 0.140581,-0.35624 0.07732,0.19593 0.07732,0.51655 0,0.71249 -0.07732,0.19593 -0.140581,0.0356 -0.140581,-0.35625 z m 4.229621,0.37999 c 0.102197,-0.10449 0.269425,-0.10449 0.371622,0 0.102193,0.1045 0.01858,0.19 -0.185811,0.19 -0.20439,0 -0.288004,-0.0855 -0.185811,-0.19 z m 24.712718,-0.80748 c 0,-0.0784 0.0627,-0.1425 0.13936,-0.1425 0.0767,0 0.13936,0.0641 0.13936,0.1425 0,0.0784 -0.0627,0.1425 -0.13936,0.1425 -0.0766,0 -0.13936,-0.0641 -0.13936,-0.1425 z m -14.77189,-0.285 c 0,-0.0784 0.0627,-0.1425 0.13936,-0.1425 0.0767,0 0.13936,0.0641 0.13936,0.1425 0,0.0784 -0.0627,0.1425 -0.13936,0.1425 -0.0766,0 -0.13936,-0.0641 -0.13936,-0.1425 z m -9.989126,-1.67362 c -0.04126,-1.54811 -0.08118,-1.64466 -0.532357,-1.28739 -0.361677,0.2864 -0.343667,0.2131 0.06968,-0.28358 0.55743,-0.66981 0.55743,-0.66981 0.644302,0.36751 0.04778,0.57053 0.0365,1.45127 -0.02508,1.9572 -0.06604,0.54262 -0.130241,0.23349 -0.156552,-0.75374 z m 46.222066,1.10363 c 0,-0.0784 0.0627,-0.1425 0.13936,-0.1425 0.0767,0 0.13936,0.0641 0.13936,0.1425 0,0.0784 -0.0627,0.1425 -0.13936,0.1425 -0.0767,0 -0.13936,-0.0641 -0.13936,-0.1425 z m -18.6739,-0.28499 c 0,-0.0784 0.0627,-0.1425 0.13936,-0.1425 0.0767,0 0.13936,0.0641 0.13936,0.1425 0,0.0784 -0.0627,0.14249 -0.13936,0.14249 -0.0767,0 -0.13936,-0.0641 -0.13936,-0.14249 z m -39.89178,-1.21124 c -0.346685,-0.45202 -0.336827,-0.4621 0.105231,-0.1076 0.268263,0.21513 0.487751,0.43956 0.487751,0.49874 0,0.0592 -0.04735,0.10761 -0.105231,0.10761 -0.05787,0 -0.277363,-0.22444 -0.487751,-0.49875 z m 42.40022,0.0712 c 0,-0.0784 0.0627,-0.14249 0.13935,-0.14249 0.0767,0 0.13936,0.0641 0.13936,0.14249 0,0.0784 -0.0627,0.1425 -0.13936,0.1425 -0.0766,0 -0.13935,-0.0641 -0.13935,-0.1425 z m 18.39518,-0.28499 c 0,-0.0784 0.0627,-0.1425 0.13936,-0.1425 0.0766,0 0.13936,0.0641 0.13936,0.1425 0,0.0784 -0.0627,0.1425 -0.13936,0.1425 -0.0767,0 -0.13936,-0.0641 -0.13936,-0.1425 z m -7.80402,-0.285 c 0,-0.0784 0.0627,-0.1425 0.13936,-0.1425 0.0767,0 0.13936,0.0641 0.13936,0.1425 0,0.0784 -0.0627,0.1425 -0.13936,0.1425 -0.0767,0 -0.13936,-0.0641 -0.13936,-0.1425 z m 8.08274,-1.32998 c 0,-0.65311 0.0461,-1.13404 0.10238,-1.06873 0.0563,0.0653 0.18741,0.59968 0.29134,1.18748 0.11963,0.67661 0.0821,1.06873 -0.10238,1.06873 -0.16024,0 -0.29134,-0.53436 -0.29134,-1.18748 z m -56.300414,0.61749 c 0,-0.20899 0.08361,-0.29449 0.185811,-0.19 0.102193,0.1045 0.102193,0.2755 0,0.38 -0.102197,0.1045 -0.185811,0.019 -0.185811,-0.19 z m 3.420489,-0.85498 c 0,-0.70537 0.05436,-0.99393 0.120787,-0.64124 0.06643,0.35268 0.06643,0.92979 0,1.28248 -0.06643,0.35268 -0.120787,0.0641 -0.120787,-0.64124 z m 35.878315,0.99748 c 0,-0.0784 0.0627,-0.1425 0.13935,-0.1425 0.0767,0 0.13936,0.0641 0.13936,0.1425 0,0.0784 -0.0627,0.1425 -0.13936,0.1425 -0.0766,0 -0.13935,-0.0641 -0.13935,-0.1425 z M 83.254824,125.5936 c 0.02129,-0.28894 0.20172,-0.52535 0.400962,-0.52535 0.199242,0 0.36226,0.0519 0.36226,0.11536 0,0.0634 -0.180432,0.29985 -0.400962,0.52535 -0.348804,0.35666 -0.395926,0.34166 -0.36226,-0.11536 z m 7.173664,0.37714 c 0,-0.0784 0.06271,-0.1425 0.139358,-0.1425 0.07665,0 0.139357,0.0641 0.139357,0.1425 0,0.0784 -0.06271,0.14249 -0.139357,0.14249 -0.07665,0 -0.139358,-0.0641 -0.139358,-0.14249 z m -4.318107,-0.42424 c -0.09764,-0.16155 0.01424,-0.20932 0.262265,-0.112 0.237903,0.0934 0.432549,0.22013 0.432549,0.28173 0,0.0616 -0.118019,0.11201 -0.262265,0.11201 -0.144246,0 -0.338895,-0.12678 -0.432549,-0.28174 z m 2.924533,-0.003 c 0,-0.20899 0.08361,-0.29449 0.185811,-0.19 0.102193,0.1045 0.102193,0.2755 0,0.38 -0.102197,0.1045 -0.185811,0.019 -0.185811,-0.19 z m 52.398406,0.1425 c 0,-0.0784 0.0627,-0.1425 0.13935,-0.1425 0.0767,0 0.13936,0.0641 0.13936,0.1425 0,0.0784 -0.0627,0.1425 -0.13936,0.1425 -0.0766,0 -0.13935,-0.0641 -0.13935,-0.1425 z m -56.187672,-0.47153 c -0.123214,-0.20386 -0.07646,-0.25167 0.122908,-0.12568 0.176978,0.11185 0.321779,0.25991 0.321779,0.32903 0,0.0691 -0.05531,0.12568 -0.122907,0.12568 -0.0676,0 -0.212401,-0.14806 -0.32178,-0.32903 z m 2.674406,0.18653 c 0,-0.0784 0.06271,-0.14249 0.139358,-0.14249 0.07665,0 0.139357,0.0641 0.139357,0.14249 0,0.0784 -0.06271,0.1425 -0.139357,0.1425 -0.07665,0 -0.139358,-0.0641 -0.139358,-0.1425 z m 0.55743,0 c 0,-0.0784 0.06271,-0.14249 0.139358,-0.14249 0.07665,0 0.139357,0.0641 0.139357,0.14249 0,0.0784 -0.06271,0.1425 -0.139357,0.1425 -0.07665,0 -0.139358,-0.0641 -0.139358,-0.1425 z m 1.393575,0 c 0,-0.0784 0.06271,-0.14249 0.139357,-0.14249 0.07665,0 0.139358,0.0641 0.139358,0.14249 0,0.0784 -0.06271,0.1425 -0.139358,0.1425 -0.07665,0 -0.139357,-0.0641 -0.139357,-0.1425 z m 0.836144,-0.14249 c 0,-0.209 0.08361,-0.2945 0.185811,-0.19 0.102194,0.1045 0.102194,0.27549 0,0.37999 -0.102196,0.1045 -0.185811,0.019 -0.185811,-0.18999 z m 0.836145,-0.1425 c 0,-0.0784 0.06271,-0.1425 0.139358,-0.1425 0.07665,0 0.139357,0.0641 0.139357,0.1425 0,0.0784 -0.06271,0.1425 -0.139357,0.1425 -0.07665,0 -0.139358,-0.0641 -0.139358,-0.1425 z m -5.202679,-0.3325 c 0.102196,-0.10449 0.269425,-0.10449 0.371622,0 0.102193,0.1045 0.01858,0.19 -0.185811,0.19 -0.20439,0 -0.288005,-0.0855 -0.185811,-0.19 z m 2.136815,0.0475 c 0,-0.0784 0.06271,-0.1425 0.139358,-0.1425 0.07665,0 0.139357,0.0641 0.139357,0.1425 0,0.0784 -0.06271,0.1425 -0.139357,0.1425 -0.07665,0 -0.139358,-0.0641 -0.139358,-0.1425 z m 1.393575,0 c 0,-0.0784 0.06271,-0.1425 0.139357,-0.1425 0.07665,0 0.139358,0.0641 0.139358,0.1425 0,0.0784 -0.06271,0.1425 -0.139358,0.1425 -0.07665,0 -0.139357,-0.0641 -0.139357,-0.1425 z m 52.398401,0 c 0,-0.0784 0.0627,-0.1425 0.13936,-0.1425 0.0766,0 0.13935,0.0641 0.13935,0.1425 0,0.0784 -0.0627,0.1425 -0.13935,0.1425 -0.0767,0 -0.13936,-0.0641 -0.13936,-0.1425 z m -59.087559,-0.28499 c 0,-0.0784 0.06271,-0.1425 0.139358,-0.1425 0.07665,0 0.139357,0.0641 0.139357,0.1425 0,0.0784 -0.06271,0.14249 -0.139357,0.14249 -0.07665,0 -0.139358,-0.0641 -0.139358,-0.14249 z m 7.246587,-0.1425 c 0,-0.209 0.08361,-0.2945 0.185811,-0.19 0.102194,0.1045 0.102194,0.2755 0,0.38 -0.102196,0.10449 -0.185811,0.019 -0.185811,-0.19 z m -6.410442,-0.1425 c 0,-0.0784 0.06271,-0.1425 0.139357,-0.1425 0.07665,0 0.139358,0.0641 0.139358,0.1425 0,0.0784 -0.06271,0.1425 -0.139358,0.1425 -0.07665,0 -0.139357,-0.0641 -0.139357,-0.1425 z m 4.86605,-0.16146 c -0.101043,-0.16717 -0.123939,-0.36508 -0.05088,-0.43978 0.07306,-0.0747 0.207102,0.0621 0.297877,0.30395 0.09077,0.24189 0.113668,0.43979 0.05088,0.43979 -0.06279,0 -0.196831,-0.13678 -0.297877,-0.30396 z m 0.708248,0.019 c 0,-0.20899 0.08361,-0.29449 0.185811,-0.18999 0.102193,0.10449 0.102193,0.27549 0,0.37999 -0.102197,0.1045 -0.185811,0.019 -0.185811,-0.19 z m 2.273725,-0.28499 c 0,-0.39187 0.06326,-0.55218 0.140581,-0.35625 0.07732,0.19594 0.07732,0.51656 0,0.71249 -0.07732,0.19594 -0.140581,0.0356 -0.140581,-0.35624 z m -6.454449,0.1425 c 0,-0.0784 0.06271,-0.1425 0.139358,-0.1425 0.07665,0 0.139357,0.0641 0.139357,0.1425 0,0.0784 -0.06271,0.14249 -0.139357,0.14249 -0.07665,0 -0.139358,-0.0641 -0.139358,-0.14249 z m 2.636331,-0.16146 c -0.101042,-0.16718 -0.123939,-0.36508 -0.05088,-0.43979 0.07306,-0.0747 0.207102,0.0621 0.297876,0.30396 0.09077,0.24188 0.113669,0.43978 0.05088,0.43978 -0.06279,0 -0.196832,-0.13678 -0.297876,-0.30395 z m 48.418739,-1.08467 c -0.0413,-1.25938 -0.11788,-1.47373 -0.43134,-1.20772 -0.2888,0.24509 -0.46081,0.22518 -0.71032,-0.0822 -0.23056,-0.28408 -0.23958,-0.46229 -0.0301,-0.59469 0.16453,-0.10398 0.26469,-0.0833 0.22257,0.0459 -0.0421,0.12921 0.0488,0.28466 0.20213,0.34545 0.15329,0.0608 0.43364,-0.19571 0.623,-0.56999 0.3171,-0.62679 0.34461,-0.63439 0.34839,-0.0963 0.002,0.32133 0.16089,0.75695 0.35251,0.96804 0.24371,0.26849 0.24839,0.32633 0.0155,0.19251 -0.23236,-0.13355 -0.36444,0.21949 -0.43751,1.16942 -0.10468,1.36072 -0.10468,1.36072 -0.15491,-0.1704 z m -50.218925,0.96113 c 0,-0.0784 0.06271,-0.1425 0.139357,-0.1425 0.07665,0 0.139358,0.0641 0.139358,0.1425 0,0.0784 -0.06271,0.1425 -0.139358,0.1425 -0.07665,0 -0.139357,-0.0641 -0.139357,-0.1425 z m 0.836145,0 c 0,-0.0784 0.06271,-0.1425 0.139357,-0.1425 0.07665,0 0.139358,0.0641 0.139358,0.1425 0,0.0784 -0.06271,0.1425 -0.139358,0.1425 -0.07665,0 -0.139357,-0.0641 -0.139357,-0.1425 z m 29.38306,-0.55556 c -0.0974,-0.39675 -0.1291,-1.23561 -0.0705,-1.86413 0.10658,-1.14275 0.10658,-1.14275 -4.83534,-1.14275 -4.94193,0 -4.94193,0 -5.11784,0.95882 -0.0968,0.52735 -0.13379,1.26161 -0.0823,1.6317 0.0686,0.49302 -0.0554,0.69789 -0.46382,0.76647 -0.35761,0.06 -0.4386,0.009 -0.22594,-0.14161 0.18232,-0.12937 0.36056,-0.96988 0.39609,-1.8678 0.0646,-1.63258 0.0646,-1.63258 5.60764,-1.63258 3.05206,0 5.47603,-0.1109 5.3939,-0.24678 -0.082,-0.13572 -0.49706,-0.20223 -0.92227,-0.14779 -0.7561,0.0968 -0.75778,0.0939 -0.0763,-0.13291 0.38323,-0.12755 0.85356,-0.17557 1.04518,-0.10672 0.19162,0.0689 0.34441,0.20766 0.33953,0.30845 -0.005,0.10079 -0.19301,0.4322 -0.41807,0.73647 -0.22507,0.30426 -0.40921,1.01604 -0.40921,1.58172 0,0.56568 0.13635,1.16794 0.303,1.33834 0.21182,0.2166 0.21428,0.36589 0.008,0.49615 -0.16619,0.10503 -0.37208,-0.12841 -0.47189,-0.53505 z m 24.1302,0.0976 c 0,-0.17352 -0.16126,-0.25222 -0.35835,-0.17488 -0.20485,0.0804 -0.35835,-0.0657 -0.35835,-0.34096 0,-0.26486 0.22397,-0.49881 0.49771,-0.5199 0.35195,-0.0271 0.49771,0.16514 0.49771,0.65645 0,0.38212 -0.0627,0.69477 -0.13936,0.69477 -0.0767,0 -0.13936,-0.14197 -0.13936,-0.31548 z m -53.267668,-0.88679 c 0.128309,-0.79141 0.167566,-0.83156 0.255328,-0.26108 0.05704,0.37076 -0.0112,0.79159 -0.151621,0.93518 -0.154625,0.15811 -0.195527,-0.10776 -0.103707,-0.6741 z m 8.39457,0.77478 c 0,-0.0784 0.06271,-0.1425 0.139357,-0.1425 0.07665,0 0.139357,0.0641 0.139357,0.1425 0,0.0784 -0.06271,0.1425 -0.139357,0.1425 -0.07665,0 -0.139357,-0.0641 -0.139357,-0.1425 z m 11.148598,0 c 0,-0.0784 0.0627,-0.1425 0.13936,-0.1425 0.0766,0 0.13935,0.0641 0.13935,0.1425 0,0.0784 -0.0627,0.1425 -0.13935,0.1425 -0.0767,0 -0.13936,-0.0641 -0.13936,-0.1425 z m 0.55743,0 c 0,-0.0784 0.0627,-0.1425 0.13935,-0.1425 0.0767,0 0.13936,0.0641 0.13936,0.1425 0,0.0784 -0.0627,0.1425 -0.13936,0.1425 -0.0766,0 -0.13935,-0.0641 -0.13935,-0.1425 z m 4.90733,-0.30831 c -0.093,-0.24794 -0.16918,-0.88918 -0.16918,-1.42497 0,-0.67594 0.12799,-0.97418 0.41807,-0.97418 0.27701,0 0.4087,0.26445 0.39029,0.78374 -0.0278,0.78374 -0.0278,0.78374 -0.27326,0.0713 -0.18934,-0.54957 -0.22269,-0.40293 -0.14581,0.64124 0.0548,0.74455 0.0658,1.35373 0.0244,1.35373 -0.0414,0 -0.15143,-0.20286 -0.24448,-0.45081 z m -29.991674,0.0233 c 0,-0.0784 0.06271,-0.14249 0.139358,-0.14249 0.07665,0 0.139357,0.0641 0.139357,0.14249 0,0.0784 -0.06271,0.1425 -0.139357,0.1425 -0.07665,0 -0.139358,-0.0641 -0.139358,-0.1425 z m 0.55743,-0.14249 c 0,-0.209 0.08361,-0.2945 0.185811,-0.19 0.102194,0.1045 0.102194,0.27549 0,0.37999 -0.102196,0.1045 -0.185811,0.019 -0.185811,-0.18999 z m 8.640162,0 c 0,-0.209 0.08362,-0.2945 0.185811,-0.19 0.102194,0.1045 0.102194,0.27549 0,0.37999 -0.102196,0.1045 -0.185811,0.019 -0.185811,-0.18999 z m 18.302282,0.095 c -0.1022,-0.10449 -0.177,-0.58542 -0.16622,-1.06873 0.0167,-0.74903 0.0549,-0.79461 0.25912,-0.30874 0.23196,0.55195 0.24016,0.55045 0.25913,-0.0475 0.0108,-0.33962 -0.10897,-0.68269 -0.2661,-0.76237 -0.15712,-0.0797 -0.12577,-0.11246 0.0697,-0.0729 0.20231,0.041 0.39228,0.58416 0.44107,1.26111 0.0471,0.65399 -0.026,1.18908 -0.16259,1.18908 -0.13655,0 -0.3319,-0.0855 -0.43409,-0.19 z m 0.9827,-0.99908 c 0.0471,-0.65399 0.24248,-1.2418 0.4341,-1.30623 0.2447,-0.0823 0.34839,0.27162 0.34839,1.18908 0,0.99253 -0.10425,1.30623 -0.4341,1.30623 -0.33732,0 -0.41499,-0.2651 -0.34839,-1.18908 z m 28.37527,0.90409 c 0,-0.209 0.0836,-0.2945 0.18581,-0.19 0.10219,0.1045 0.10219,0.27549 0,0.37999 -0.1022,0.1045 -0.18581,0.019 -0.18581,-0.18999 z m -32.26627,-0.85499 c 0,-0.54862 0.0574,-0.77305 0.12746,-0.49874 0.0701,0.2743 0.0701,0.72317 0,0.99748 -0.0701,0.27431 -0.12746,0.0499 -0.12746,-0.49874 z m 6.68916,0 c 0,-0.54862 0.0574,-0.77305 0.12746,-0.49874 0.0701,0.2743 0.0701,0.72317 0,0.99748 -0.0701,0.27431 -0.12746,0.0499 -0.12746,-0.49874 z m 0.445,-0.285 c -0.0585,-0.62699 -0.009,-1.13998 0.11008,-1.13998 0.11902,0 0.2164,0.51299 0.2164,1.13998 0,0.62699 -0.0495,1.13999 -0.11008,1.13999 -0.0606,0 -0.15793,-0.513 -0.2164,-1.13999 z m 12.58994,0.99749 c 0,-0.0784 0.0627,-0.1425 0.13935,-0.1425 0.0767,0 0.13936,0.0641 0.13936,0.1425 0,0.0784 -0.0627,0.1425 -0.13936,0.1425 -0.0766,0 -0.13935,-0.0641 -0.13935,-0.1425 z m 6.02067,-0.0957 c -0.0792,-0.13099 -0.0552,-0.57445 0.0532,-0.98547 0.19718,-0.74731 0.19718,-0.74731 0.50851,-0.0703 0.26232,0.57042 0.24374,0.65047 -0.11807,0.5085 -0.31463,-0.12346 -0.38155,-0.041 -0.25039,0.30848 0.0984,0.26234 0.12762,0.47698 0.0648,0.47698 -0.0628,0 -0.17894,-0.10718 -0.25811,-0.23817 z m 5.68535,0.0957 c 0,-0.0784 0.0627,-0.1425 0.13936,-0.1425 0.0767,0 0.13936,0.0641 0.13936,0.1425 0,0.0784 -0.0627,0.1425 -0.13936,0.1425 -0.0767,0 -0.13936,-0.0641 -0.13936,-0.1425 z m -64.104426,-0.285 c 0,-0.0784 0.06271,-0.1425 0.139358,-0.1425 0.07665,0 0.139357,0.0641 0.139357,0.1425 0,0.0784 -0.06271,0.1425 -0.139357,0.1425 -0.07665,0 -0.139358,-0.0641 -0.139358,-0.1425 z m 10.033737,-0.1425 c 0,-0.20899 0.08361,-0.29449 0.185811,-0.18999 0.102193,0.1045 0.102193,0.27549 0,0.37999 -0.102197,0.1045 -0.185811,0.019 -0.185811,-0.19 z m 6.246508,-0.10522 c -0.08054,-0.21461 -0.105873,-1.08029 -0.05629,-1.92372 0.09015,-1.5335 0.09015,-1.5335 0.224867,0.39082 0.07409,1.05837 0.09942,1.92405 0.05629,1.92372 -0.04314,-2.9e-4 -0.144324,-0.1762 -0.224867,-0.39082 z m 13.263531,0.24772 c 0,-0.0784 0.0627,-0.1425 0.13936,-0.1425 0.0767,0 0.13936,0.0641 0.13936,0.1425 0,0.0784 -0.0627,0.1425 -0.13936,0.1425 -0.0767,0 -0.13936,-0.0641 -0.13936,-0.1425 z m 3.66125,-0.61749 c -0.0209,-0.49636 -0.19473,-0.96717 -0.38635,-1.04623 -0.27287,-0.11259 -0.27098,-0.14863 0.009,-0.16625 0.19643,-0.0124 0.42583,0.16054 0.50979,0.38427 0.084,0.22372 0.0971,0.70465 0.0292,1.06873 -0.0965,0.51726 -0.13174,0.46468 -0.1614,-0.24052 z m -24.194691,-1.37748 c 0.0011,-1.09723 0.05161,-1.51117 0.111948,-0.91988 0.06033,0.5913 0.05932,1.48904 -0.0022,1.99497 -0.06157,0.50594 -0.110937,0.0221 -0.1097,-1.07509 z m 6.04027,1.70998 c 0,-0.0784 0.06271,-0.1425 0.139357,-0.1425 0.07665,0 0.139358,0.0641 0.139358,0.1425 0,0.0784 -0.06271,0.14249 -0.139358,0.14249 -0.07665,0 -0.139357,-0.0641 -0.139357,-0.14249 z m 44.873101,0 c 0,-0.0784 0.0627,-0.1425 0.13936,-0.1425 0.0766,0 0.13935,0.0641 0.13935,0.1425 0,0.0784 -0.0627,0.14249 -0.13935,0.14249 -0.0767,0 -0.13936,-0.0641 -0.13936,-0.14249 z m 3.90201,0 c 0,-0.0784 0.0627,-0.1425 0.13935,-0.1425 0.0767,0 0.13936,0.0641 0.13936,0.1425 0,0.0784 -0.0627,0.14249 -0.13936,0.14249 -0.0766,0 -0.13935,-0.0641 -0.13935,-0.14249 z m -49.611256,-0.4275 c 0,-0.20899 0.08361,-0.29449 0.185811,-0.18999 0.102194,0.10449 0.102194,0.27549 0,0.37999 -0.102196,0.1045 -0.185811,0.019 -0.185811,-0.19 z m 14.605916,-0.044 c -0.12321,-0.20386 -0.0765,-0.25167 0.12291,-0.12568 0.17698,0.11184 0.32178,0.25991 0.32178,0.32903 0,0.0691 -0.0553,0.12568 -0.12291,0.12568 -0.0676,0 -0.2124,-0.14806 -0.32178,-0.32903 z m 34.39181,-0.16971 c -0.0666,-0.27431 -0.0349,-0.81937 0.0706,-1.21123 0.14959,-0.556 0.19245,-0.44645 0.1951,0.49874 0.002,0.66617 -0.0299,1.21123 -0.0706,1.21123 -0.0407,0 -0.1285,-0.22444 -0.19511,-0.49874 z m 1.17096,0.35624 c 0,-0.0784 0.0627,-0.1425 0.13935,-0.1425 0.0767,0 0.13936,0.0641 0.13936,0.1425 0,0.0784 -0.0627,0.1425 -0.13936,0.1425 -0.0766,0 -0.13935,-0.0641 -0.13935,-0.1425 z m 0.83614,-0.1425 c 0,-0.20899 0.0836,-0.29449 0.18581,-0.18999 0.1022,0.10449 0.1022,0.27549 0,0.37999 -0.10219,0.1045 -0.18581,0.019 -0.18581,-0.19 z m 0.55743,0 c 0,-0.20899 0.0836,-0.29449 0.18581,-0.18999 0.1022,0.10449 0.1022,0.27549 0,0.37999 -0.10219,0.1045 -0.18581,0.019 -0.18581,-0.19 z m -54.349405,-0.14249 c 0,-0.0784 0.06271,-0.1425 0.139358,-0.1425 0.07665,0 0.139357,0.0641 0.139357,0.1425 0,0.0784 -0.06271,0.14249 -0.139357,0.14249 -0.07665,0 -0.139358,-0.0641 -0.139358,-0.14249 z m 0.836145,0 c 0,-0.0784 0.06271,-0.1425 0.139357,-0.1425 0.07665,0 0.139358,0.0641 0.139358,0.1425 0,0.0784 -0.06271,0.14249 -0.139358,0.14249 -0.07665,0 -0.139357,-0.0641 -0.139357,-0.14249 z m 54.07069,0 c 0,-0.0784 0.0627,-0.1425 0.13936,-0.1425 0.0766,0 0.13936,0.0641 0.13936,0.1425 0,0.0784 -0.0627,0.14249 -0.13936,0.14249 -0.0767,0 -0.13936,-0.0641 -0.13936,-0.14249 z m -21.18233,-0.285 c 0,-0.0784 0.0627,-0.1425 0.13936,-0.1425 0.0766,0 0.13935,0.0641 0.13935,0.1425 0,0.0784 -0.0627,0.1425 -0.13935,0.1425 -0.0767,0 -0.13936,-0.0641 -0.13936,-0.1425 z m 12.26345,-0.15144 c 0,-0.15183 0.18814,-0.27605 0.41808,-0.27605 0.22994,0 0.41807,0.0504 0.41807,0.112 0,0.0616 -0.18813,0.18583 -0.41807,0.27605 -0.22994,0.0902 -0.41808,0.0398 -0.41808,-0.112 z m 6.43245,-0.4423 c 0.0134,-0.33201 0.0794,-0.39954 0.16839,-0.17219 0.0805,0.20573 0.0706,0.45155 -0.022,0.54625 -0.0926,0.0947 -0.15849,-0.0736 -0.14639,-0.37406 z m 1.37157,0.30874 c 0,-0.0784 0.0627,-0.14249 0.13936,-0.14249 0.0766,0 0.13936,0.0641 0.13936,0.14249 0,0.0784 -0.0627,0.1425 -0.13936,0.1425 -0.0767,0 -0.13936,-0.0641 -0.13936,-0.1425 z m 6.68916,0 c 0,-0.0784 0.0627,-0.14249 0.13936,-0.14249 0.0766,0 0.13935,0.0641 0.13935,0.14249 0,0.0784 -0.0627,0.1425 -0.13935,0.1425 -0.0767,0 -0.13936,-0.0641 -0.13936,-0.1425 z m -58.530131,-0.42749 c 0,-0.209 0.08361,-0.29449 0.185811,-0.19 0.102194,0.1045 0.102194,0.2755 0,0.38 -0.102196,0.1045 -0.185811,0.019 -0.185811,-0.19 z m 20.717811,0.095 c 0.10219,-0.1045 0.26942,-0.1045 0.37162,0 0.10219,0.1045 0.0186,0.19 -0.18581,0.19 -0.20439,0 -0.28801,-0.0855 -0.18581,-0.19 z m 6.96787,0 c 0.1022,-0.1045 0.26942,-0.1045 0.37162,0 0.10219,0.1045 0.0186,0.19 -0.18581,0.19 -0.20439,0 -0.288,-0.0855 -0.18581,-0.19 z m 19.43914,-0.26125 c 0.0134,-0.332 0.0794,-0.39953 0.16839,-0.17218 0.0805,0.20573 0.0706,0.45154 -0.022,0.54624 -0.0926,0.0947 -0.15849,-0.0736 -0.14639,-0.37406 z m -43.744502,-0.97373 c -0.02941,-0.70537 -0.237613,-1.53143 -0.462675,-1.8357 -0.225065,-0.30426 -0.407289,-0.68901 -0.404942,-0.85498 0.0022,-0.16598 0.125848,-0.1094 0.274447,0.12572 0.201216,0.31837 0.280268,0.13651 0.309703,-0.71249 0.02962,-0.85419 0.102927,-0.63985 0.292419,0.85499 0.139093,1.09723 0.20601,2.37971 0.148706,2.84995 -0.07537,0.61848 -0.118978,0.50022 -0.157658,-0.42749 z m 28.950612,0.99748 c 0,-0.0784 0.0627,-0.14249 0.13936,-0.14249 0.0766,0 0.13935,0.0641 0.13935,0.14249 0,0.0784 -0.0627,0.1425 -0.13935,0.1425 -0.0767,0 -0.13936,-0.0641 -0.13936,-0.1425 z m -14.49318,-0.42749 c 0,-0.209 0.0836,-0.29449 0.18581,-0.19 0.1022,0.1045 0.1022,0.2755 0,0.38 -0.10219,0.10449 -0.18581,0.019 -0.18581,-0.19 z m 26.47792,0 c 0,-0.209 0.0836,-0.29449 0.18581,-0.19 0.10219,0.1045 0.10219,0.2755 0,0.38 -0.1022,0.10449 -0.18581,0.019 -0.18581,-0.19 z m 2.22972,0.1425 c 0,-0.0784 0.0627,-0.1425 0.13936,-0.1425 0.0766,0 0.13935,0.0641 0.13935,0.1425 0,0.0784 -0.0627,0.1425 -0.13935,0.1425 -0.0767,0 -0.13936,-0.0641 -0.13936,-0.1425 z m 2.78715,0 c 0,-0.0784 0.0627,-0.1425 0.13935,-0.1425 0.0767,0 0.13936,0.0641 0.13936,0.1425 0,0.0784 -0.0627,0.1425 -0.13936,0.1425 -0.0766,0 -0.13935,-0.0641 -0.13935,-0.1425 z m -49.796264,-2.13747 c 0,-1.17561 0.0492,-1.65654 0.109329,-1.06873 0.06013,0.5878 0.06013,1.54966 0,2.13746 -0.06013,0.58781 -0.109329,0.10688 -0.109329,-1.06873 z m 0.528385,1.13998 c 0,-0.54861 0.05736,-0.77305 0.127465,-0.49874 0.0701,0.27431 0.0701,0.72318 0,0.99749 -0.0701,0.2743 -0.127465,0.0499 -0.127465,-0.49875 z m 14.149799,0.71249 c 0,-0.0784 0.0627,-0.1425 0.13936,-0.1425 0.0766,0 0.13935,0.0641 0.13935,0.1425 0,0.0784 -0.0627,0.1425 -0.13935,0.1425 -0.0767,0 -0.13936,-0.0641 -0.13936,-0.1425 z m 33.44579,0 c 0,-0.0784 0.0627,-0.1425 0.13935,-0.1425 0.0767,0 0.13936,0.0641 0.13936,0.1425 0,0.0784 -0.0627,0.1425 -0.13936,0.1425 -0.0766,0 -0.13935,-0.0641 -0.13935,-0.1425 z m 4.73815,-0.28499 c 0,-0.0784 0.0627,-0.1425 0.13936,-0.1425 0.0766,0 0.13936,0.0641 0.13936,0.1425 0,0.0784 -0.0627,0.14249 -0.13936,0.14249 -0.0767,0 -0.13936,-0.0641 -0.13936,-0.14249 z m -38.46266,-0.285 c 0,-0.0784 0.0627,-0.1425 0.13936,-0.1425 0.0767,0 0.13936,0.0641 0.13936,0.1425 0,0.0784 -0.0627,0.1425 -0.13936,0.1425 -0.0766,0 -0.13936,-0.0641 -0.13936,-0.1425 z m 4.27363,-0.0475 c 0.1022,-0.1045 0.26943,-0.1045 0.37162,0 0.1022,0.1045 0.0186,0.19 -0.18581,0.19 -0.20439,0 -0.288,-0.0855 -0.18581,-0.19 z m 26.1063,0.0475 c 0,-0.0784 0.0627,-0.1425 0.13936,-0.1425 0.0766,0 0.13935,0.0641 0.13935,0.1425 0,0.0784 -0.0627,0.1425 -0.13935,0.1425 -0.0767,0 -0.13936,-0.0641 -0.13936,-0.1425 z m 0.77435,-0.42749 c 0.0691,-0.23512 0.22497,-1.13286 0.34646,-1.99497 0.22089,-1.56748 0.22089,-1.56748 0.18453,0.33369 -0.02,1.04564 -0.12304,1.8464 -0.22898,1.77945 -0.10593,-0.0669 -0.24547,-0.0247 -0.31009,0.0938 -0.0646,0.11854 -0.061,0.0231 0.008,-0.21197 z m 3.40637,0.42749 c 0,-0.0784 0.0627,-0.1425 0.13936,-0.1425 0.0767,0 0.13936,0.0641 0.13936,0.1425 0,0.0784 -0.0627,0.1425 -0.13936,0.1425 -0.0767,0 -0.13936,-0.0641 -0.13936,-0.1425 z m 3.51695,-0.27019 c 0.0913,-0.24327 0.0376,-0.4423 -0.11932,-0.4423 -0.15692,0 -0.33792,0.0962 -0.40221,0.21375 -0.0643,0.11756 -0.0747,0.043 -0.0232,-0.16581 0.0515,-0.20875 0.0937,-1.27437 0.0937,-2.36803 0,-1.3789 0.0944,-1.92882 0.30795,-1.79387 0.21371,0.13506 0.27767,-0.24403 0.20903,-1.23886 -0.0544,-0.78841 -0.005,-1.37384 0.11013,-1.30095 0.11497,0.0729 0.20904,1.72047 0.20904,3.66132 0,2.01785 -0.11797,3.60336 -0.27552,3.70292 -0.158,0.0998 -0.20472,-0.0146 -0.10954,-0.26817 z m -6.02538,-0.2998 c 0,-0.0784 0.0627,-0.1425 0.13936,-0.1425 0.0766,0 0.13935,0.0641 0.13935,0.1425 0,0.0784 -0.0627,0.1425 -0.13935,0.1425 -0.0767,0 -0.13936,-0.0641 -0.13936,-0.1425 z m 4.73815,-0.1425 c 0,-0.20899 0.0836,-0.29449 0.18581,-0.19 0.1022,0.1045 0.1022,0.2755 0,0.38 -0.10219,0.1045 -0.18581,0.019 -0.18581,-0.19 z m 10.03374,0.1425 c 0,-0.0784 0.0627,-0.1425 0.13936,-0.1425 0.0766,0 0.13935,0.0641 0.13935,0.1425 0,0.0784 -0.0627,0.1425 -0.13935,0.1425 -0.0767,0 -0.13936,-0.0641 -0.13936,-0.1425 z m -13.93575,-0.56999 c 0,-0.0784 0.0627,-0.1425 0.13936,-0.1425 0.0767,0 0.13936,0.0641 0.13936,0.1425 0,0.0784 -0.0627,0.1425 -0.13936,0.1425 -0.0767,0 -0.13936,-0.0641 -0.13936,-0.1425 z m 3.34458,0 c 0,-0.0784 0.0627,-0.1425 0.13936,-0.1425 0.0767,0 0.13936,0.0641 0.13936,0.1425 0,0.0784 -0.0627,0.1425 -0.13936,0.1425 -0.0767,0 -0.13936,-0.0641 -0.13936,-0.1425 z m 11.1486,0 c 0,-0.0784 0.0627,-0.1425 0.13935,-0.1425 0.0767,0 0.13936,0.0641 0.13936,0.1425 0,0.0784 -0.0627,0.1425 -0.13936,0.1425 -0.0766,0 -0.13935,-0.0641 -0.13935,-0.1425 z m -65.219289,-0.285 c 0,-0.0784 0.06271,-0.1425 0.139357,-0.1425 0.07665,0 0.139358,0.0641 0.139358,0.1425 0,0.0784 -0.06271,0.1425 -0.139358,0.1425 -0.07665,0 -0.139357,-0.0641 -0.139357,-0.1425 z m 51.840969,0 c 0,-0.0784 0.0627,-0.1425 0.13936,-0.1425 0.0767,0 0.13936,0.0641 0.13936,0.1425 0,0.0784 -0.0627,0.1425 -0.13936,0.1425 -0.0767,0 -0.13936,-0.0641 -0.13936,-0.1425 z m 1.67229,0 c 0,-0.0784 0.0627,-0.1425 0.13936,-0.1425 0.0767,0 0.13936,0.0641 0.13936,0.1425 0,0.0784 -0.0627,0.1425 -0.13936,0.1425 -0.0767,0 -0.13936,-0.0641 -0.13936,-0.1425 z m -31.91285,-0.42749 c 0.0947,-0.15675 0.22756,-0.285 0.29516,-0.285 0.0676,0 0.12291,0.12825 0.12291,0.285 0,0.15675 -0.13283,0.28499 -0.29517,0.28499 -0.16234,0 -0.21765,-0.12824 -0.1229,-0.28499 z m 11.84538,0 c 0,-0.209 0.0836,-0.2945 0.18581,-0.19 0.10219,0.1045 0.10219,0.2755 0,0.38 -0.1022,0.10449 -0.18581,0.019 -0.18581,-0.19 z m -33.948883,-0.71249 c 0.0057,-0.47024 0.06815,-0.62811 0.138811,-0.35082 0.07066,0.27729 0.06602,0.66204 -0.01034,0.85499 -0.07635,0.19295 -0.134165,-0.0339 -0.128484,-0.50417 z m 0.595998,0.52249 c 0.102196,-0.1045 0.269425,-0.1045 0.371622,0 0.102193,0.1045 0.01858,0.19 -0.185811,0.19 -0.20439,0 -0.288005,-0.0855 -0.185811,-0.19 z m 52.091445,-0.94998 c 0,-0.54862 0.0574,-0.77305 0.12746,-0.49875 0.0701,0.27431 0.0701,0.72318 0,0.99749 -0.0701,0.27431 -0.12746,0.0499 -0.12746,-0.49874 z m -29.88716,0.42749 c 0,-0.0784 0.0627,-0.1425 0.13936,-0.1425 0.0766,0 0.13936,0.0641 0.13936,0.1425 0,0.0784 -0.0627,0.1425 -0.13936,0.1425 -0.0767,0 -0.13936,-0.0641 -0.13936,-0.1425 z m -19.51004,-0.285 c 0,-0.0784 0.06271,-0.14249 0.139357,-0.14249 0.07665,0 0.139358,0.0641 0.139358,0.14249 0,0.0784 -0.06271,0.1425 -0.139358,0.1425 -0.07665,0 -0.139357,-0.0641 -0.139357,-0.1425 z m 1.486478,-0.0475 c 0.102197,-0.10449 0.269426,-0.10449 0.371622,0 0.102194,0.1045 0.01858,0.19 -0.185811,0.19 -0.20439,0 -0.288004,-0.0855 -0.185811,-0.19 z m 44.600412,-2.23246 c -8.4e-4,-1.41073 0.0463,-2.02378 0.10473,-1.36233 0.0585,0.66145 0.0592,1.81568 0.002,2.56496 -0.0577,0.74928 -0.10556,0.2081 -0.10641,-1.20263 z m -43.021026,1.85247 c 0,-0.20899 0.08361,-0.29449 0.185811,-0.19 0.102193,0.1045 0.102193,0.2755 0,0.38 -0.102197,0.1045 -0.185811,0.019 -0.185811,-0.19 z m 15.979656,0.095 c 0.10219,-0.1045 0.26942,-0.1045 0.37162,0 0.10219,0.1045 0.0186,0.19 -0.18581,0.19 -0.20439,0 -0.28801,-0.0855 -0.18581,-0.19 z m 45.33762,0.0475 c 0,-0.0784 0.0627,-0.1425 0.13936,-0.1425 0.0767,0 0.13936,0.0641 0.13936,0.1425 0,0.0784 -0.0627,0.1425 -0.13936,0.1425 -0.0767,0 -0.13936,-0.0641 -0.13936,-0.1425 z m -45.15181,-0.56999 c 0,-0.0784 0.0627,-0.1425 0.13936,-0.1425 0.0766,0 0.13935,0.0641 0.13935,0.1425 0,0.0784 -0.0627,0.1425 -0.13935,0.1425 -0.0767,0 -0.13936,-0.0641 -0.13936,-0.1425 z m 10.31245,-0.62083 c -0.38323,-0.41442 -0.51939,-0.69373 -0.30257,-0.6207 0.21682,0.073 0.57703,0.41431 0.80046,0.75841 0.22343,0.34409 0.35959,0.6234 0.30257,0.62069 -0.057,-0.003 -0.41723,-0.34399 -0.80046,-0.7584 z m 35.39679,0.62083 c 0,-0.0784 0.0627,-0.1425 0.13936,-0.1425 0.0767,0 0.13936,0.0641 0.13936,0.1425 0,0.0784 -0.0627,0.1425 -0.13936,0.1425 -0.0767,0 -0.13936,-0.0641 -0.13936,-0.1425 z m -44.8731,-0.56999 c 0,-0.0784 0.0627,-0.1425 0.13936,-0.1425 0.0767,0 0.13936,0.0641 0.13936,0.1425 0,0.0784 -0.0627,0.14249 -0.13936,0.14249 -0.0767,0 -0.13936,-0.0641 -0.13936,-0.14249 z m 0.55743,0 c 0,-0.0784 0.0627,-0.1425 0.13936,-0.1425 0.0767,0 0.13936,0.0641 0.13936,0.1425 0,0.0784 -0.0627,0.14249 -0.13936,0.14249 -0.0767,0 -0.13936,-0.0641 -0.13936,-0.14249 z m -16.722892,-0.4275 c 0,-0.20899 0.08361,-0.29449 0.185811,-0.18999 0.102194,0.10449 0.102194,0.27549 0,0.37999 -0.102196,0.1045 -0.185811,0.019 -0.185811,-0.19 z m 16.444182,-0.14249 c 0,-0.0784 0.0627,-0.1425 0.13936,-0.1425 0.0766,0 0.13935,0.0641 0.13935,0.1425 0,0.0784 -0.0627,0.14249 -0.13935,0.14249 -0.0767,0 -0.13936,-0.0641 -0.13936,-0.14249 z m 0.55743,0 c 0,-0.0784 0.0627,-0.1425 0.13935,-0.1425 0.0767,0 0.13936,0.0641 0.13936,0.1425 0,0.0784 -0.0627,0.14249 -0.13936,0.14249 -0.0766,0 -0.13935,-0.0641 -0.13935,-0.14249 z m 1.11486,-0.285 c 0,-0.0784 0.0627,-0.1425 0.13935,-0.1425 0.0767,0 0.13936,0.0641 0.13936,0.1425 0,0.0784 -0.0627,0.1425 -0.13936,0.1425 -0.0766,0 -0.13935,-0.0641 -0.13935,-0.1425 z m 24.52691,0 c 0,-0.0784 0.0627,-0.1425 0.13936,-0.1425 0.0766,0 0.13935,0.0641 0.13935,0.1425 0,0.0784 -0.0627,0.1425 -0.13935,0.1425 -0.0767,0 -0.13936,-0.0641 -0.13936,-0.1425 z m -49.009818,-0.71249 c 0,-0.39187 0.06326,-0.55218 0.140581,-0.35624 0.07732,0.19593 0.07732,0.51655 0,0.71249 -0.07732,0.19593 -0.140581,0.0356 -0.140581,-0.35625 z m 0.513424,0.42749 c 0,-0.0784 0.06271,-0.14249 0.139357,-0.14249 0.07665,0 0.139358,0.0641 0.139358,0.14249 0,0.0784 -0.06271,0.1425 -0.139358,0.1425 -0.07665,0 -0.139357,-0.0641 -0.139357,-0.1425 z m 5.618304,-0.42749 c 0,-0.39187 0.06326,-0.55218 0.140581,-0.35624 0.07732,0.19593 0.07732,0.51655 0,0.71249 -0.07732,0.19593 -0.140581,0.0356 -0.140581,-0.35625 z m 49.00982,0.42749 c 0,-0.0784 0.0627,-0.14249 0.13935,-0.14249 0.0767,0 0.13936,0.0641 0.13936,0.14249 0,0.0784 -0.0627,0.1425 -0.13936,0.1425 -0.0766,0 -0.13935,-0.0641 -0.13935,-0.1425 z m -53.79198,-0.42749 c 0,-0.209 0.08361,-0.29449 0.185811,-0.19 0.102194,0.1045 0.102194,0.2755 0,0.38 -0.102196,0.1045 -0.185811,0.019 -0.185811,-0.19 z m 48.03187,0.095 c 0.10219,-0.1045 0.26942,-0.1045 0.37162,0 0.10219,0.1045 0.0186,0.19 -0.18581,0.19 -0.20439,0 -0.28801,-0.0855 -0.18581,-0.19 z m 19.97457,0.0475 c 0,-0.0784 0.0627,-0.1425 0.13935,-0.1425 0.0767,0 0.13936,0.0641 0.13936,0.1425 0,0.0784 -0.0627,0.1425 -0.13936,0.1425 -0.0766,0 -0.13935,-0.0641 -0.13935,-0.1425 z m -66.33415,-0.42749 c 0,-0.209 0.08361,-0.2945 0.185811,-0.19 0.102193,0.1045 0.102193,0.27549 0,0.37999 -0.102197,0.1045 -0.185811,0.019 -0.185811,-0.18999 z m 1.393574,0 c 0,-0.209 0.08361,-0.2945 0.185811,-0.19 0.102194,0.1045 0.102194,0.27549 0,0.37999 -0.102196,0.1045 -0.185811,0.019 -0.185811,-0.18999 z m 24.805626,0 c 0,-0.209 0.0836,-0.2945 0.18581,-0.19 0.10219,0.1045 0.10219,0.27549 0,0.37999 -0.1022,0.1045 -0.18581,0.019 -0.18581,-0.18999 z m 0.55743,0.14249 c 0,-0.0784 0.0627,-0.14249 0.13936,-0.14249 0.0766,0 0.13936,0.0641 0.13936,0.14249 0,0.0784 -0.0627,0.1425 -0.13936,0.1425 -0.0767,0 -0.13936,-0.0641 -0.13936,-0.1425 z m 23.27269,-0.14249 c 0.0948,-0.15675 0.23497,-0.285 0.31162,-0.285 0.0766,0 0.0618,0.12825 -0.0329,0.285 -0.0947,0.15674 -0.23497,0.28499 -0.31161,0.28499 -0.0767,0 -0.0618,-0.12825 0.0329,-0.28499 z m -50.865465,-0.285 c 0,-0.209 0.08361,-0.29449 0.185811,-0.19 0.102193,0.1045 0.102193,0.2755 0,0.38 -0.102197,0.10449 -0.185811,0.019 -0.185811,-0.19 z m 24.108835,-0.285 c 0.0947,-0.15674 0.23497,-0.28499 0.31162,-0.28499 0.0766,0 0.0618,0.12825 -0.0329,0.28499 -0.0947,0.15675 -0.23497,0.285 -0.31161,0.285 -0.0767,0 -0.0619,-0.12825 0.0329,-0.285 z m 1.92439,-0.044 c -0.12321,-0.20386 -0.0765,-0.25167 0.12291,-0.12568 0.17698,0.11185 0.32178,0.25991 0.32178,0.32903 0,0.0691 -0.0553,0.12568 -0.12291,0.12568 -0.0676,0 -0.2124,-0.14806 -0.32178,-0.32903 z m 21.62702,0.21702 c 0,-0.0616 0.19465,-0.18838 0.43255,-0.28173 0.24804,-0.0973 0.35991,-0.0495 0.26227,0.11201 -0.0937,0.15495 -0.28831,0.28173 -0.43255,0.28173 -0.14425,0 -0.26227,-0.0504 -0.26227,-0.11201 z m 4.30862,-0.19195 c -0.10104,-0.16717 -0.1398,-0.34661 -0.0861,-0.39875 0.0537,-0.0521 0.25932,0.0846 0.45698,0.30396 0.19766,0.21931 0.23641,0.39875 0.0861,0.39875 -0.15029,0 -0.35592,-0.13678 -0.45697,-0.30396 z M 84.018046,112.006 c 0,-0.0784 0.06271,-0.1425 0.139357,-0.1425 0.07665,0 0.139358,0.0641 0.139358,0.1425 0,0.0784 -0.06271,0.1425 -0.139358,0.1425 -0.07665,0 -0.139357,-0.0641 -0.139357,-0.1425 z m 5.853013,0 c 0,-0.0784 0.06271,-0.1425 0.139357,-0.1425 0.07665,0 0.139358,0.0641 0.139358,0.1425 0,0.0784 -0.06271,0.1425 -0.139358,0.1425 -0.07665,0 -0.139357,-0.0641 -0.139357,-0.1425 z m -5.016868,-0.28499 c 0,-0.0784 0.06271,-0.1425 0.139357,-0.1425 0.07665,0 0.139357,0.0641 0.139357,0.1425 0,0.0784 -0.06271,0.14249 -0.139357,0.14249 -0.07665,0 -0.139357,-0.0641 -0.139357,-0.14249 z m 67.727719,0 c 0,-0.0784 0.0627,-0.1425 0.13936,-0.1425 0.0767,0 0.13936,0.0641 0.13936,0.1425 0,0.0784 -0.0627,0.14249 -0.13936,0.14249 -0.0767,0 -0.13936,-0.0641 -0.13936,-0.14249 z m -51.56226,-0.285 c 0,-0.0784 0.0627,-0.1425 0.13936,-0.1425 0.0767,0 0.13936,0.0641 0.13936,0.1425 0,0.0784 -0.0627,0.1425 -0.13936,0.1425 -0.0766,0 -0.13936,-0.0641 -0.13936,-0.1425 z m 9.75503,0 c 0,-0.0784 0.0627,-0.1425 0.13935,-0.1425 0.0767,0 0.13936,0.0641 0.13936,0.1425 0,0.0784 -0.0627,0.1425 -0.13936,0.1425 -0.0766,0 -0.13935,-0.0641 -0.13935,-0.1425 z m 0.92904,-0.0475 c 0.1022,-0.1045 0.26943,-0.1045 0.37163,0 0.10219,0.1045 0.0186,0.19 -0.18581,0.19 -0.20439,0 -0.28801,-0.0855 -0.18582,-0.19 z m 9.38341,-0.2375 c 0,-0.0784 0.0627,-0.14249 0.13935,-0.14249 0.0767,0 0.13936,0.0641 0.13936,0.14249 0,0.0784 -0.0627,0.1425 -0.13936,0.1425 -0.0766,0 -0.13935,-0.0641 -0.13935,-0.1425 z m 17.83775,0 c 0,-0.0784 0.0627,-0.14249 0.13936,-0.14249 0.0767,0 0.13936,0.0641 0.13936,0.14249 0,0.0784 -0.0627,0.1425 -0.13936,0.1425 -0.0767,0 -0.13936,-0.0641 -0.13936,-0.1425 z m -52.843087,-0.47152 c -0.123214,-0.20386 -0.07646,-0.25167 0.122908,-0.12568 0.176978,0.11184 0.321779,0.25991 0.321779,0.32903 0,0.0691 -0.05531,0.12568 -0.122908,0.12568 -0.0676,0 -0.2124,-0.14807 -0.321779,-0.32903 z m 2.395691,0.18653 c 0,-0.0784 0.06271,-0.1425 0.139358,-0.1425 0.07665,0 0.139357,0.0641 0.139357,0.1425 0,0.0784 -0.06271,0.1425 -0.139357,0.1425 -0.07665,0 -0.139358,-0.0641 -0.139358,-0.1425 z m 5.295583,0 c 0,-0.0784 0.06271,-0.1425 0.139358,-0.1425 0.07665,0 0.139357,0.0641 0.139357,0.1425 0,0.0784 -0.06271,0.1425 -0.139357,0.1425 -0.07665,0 -0.139358,-0.0641 -0.139358,-0.1425 z m 39.690263,-0.18653 c -0.12322,-0.20386 -0.0765,-0.25167 0.1229,-0.12568 0.17698,0.11184 0.32178,0.25991 0.32178,0.32903 0,0.0691 -0.0553,0.12568 -0.1229,0.12568 -0.0676,0 -0.21241,-0.14807 -0.32178,-0.32903 z m -22.40994,-0.0985 c 0,-0.0784 0.0627,-0.1425 0.13936,-0.1425 0.0767,0 0.13936,0.0641 0.13936,0.1425 0,0.0784 -0.0627,0.1425 -0.13936,0.1425 -0.0767,0 -0.13936,-0.0641 -0.13936,-0.1425 z M 74.263024,110.296 c 0,-0.0784 0.06271,-0.1425 0.139358,-0.1425 0.07665,0 0.139357,0.0641 0.139357,0.1425 0,0.0784 -0.06271,0.14249 -0.139357,0.14249 -0.07665,0 -0.139358,-0.0641 -0.139358,-0.14249 z m 12.542171,0 c 0,-0.0784 0.06271,-0.1425 0.139357,-0.1425 0.07665,0 0.139358,0.0641 0.139358,0.1425 0,0.0784 -0.06271,0.14249 -0.139358,0.14249 -0.07665,0 -0.139357,-0.0641 -0.139357,-0.14249 z m 23.690765,0 c 0,-0.0784 0.0627,-0.1425 0.13936,-0.1425 0.0767,0 0.13936,0.0641 0.13936,0.1425 0,0.0784 -0.0627,0.14249 -0.13936,0.14249 -0.0766,0 -0.13936,-0.0641 -0.13936,-0.14249 z m 23.96948,0 c 0,-0.0784 0.0627,-0.1425 0.13936,-0.1425 0.0767,0 0.13936,0.0641 0.13936,0.1425 0,0.0784 -0.0627,0.14249 -0.13936,0.14249 -0.0767,0 -0.13936,-0.0641 -0.13936,-0.14249 z m 1.7163,-0.4275 c 0,-0.39187 0.0633,-0.55218 0.14058,-0.35624 0.0773,0.19593 0.0773,0.51655 0,0.71249 -0.0773,0.19593 -0.14058,0.0356 -0.14058,-0.35625 z m 2.74314,0.4275 c 0,-0.0784 0.0627,-0.1425 0.13936,-0.1425 0.0767,0 0.13936,0.0641 0.13936,0.1425 0,0.0784 -0.0627,0.14249 -0.13936,0.14249 -0.0767,0 -0.13936,-0.0641 -0.13936,-0.14249 z M 86.3021,109.44104 c 0.0057,-0.47024 0.06815,-0.62811 0.138812,-0.35082 0.07067,0.27729 0.06602,0.66204 -0.01034,0.85499 -0.07635,0.19295 -0.134165,-0.0339 -0.128484,-0.50417 z m 1.710858,0.52249 c 0.102197,-0.1045 0.269426,-0.1045 0.371622,0 0.102194,0.1045 0.01858,0.19 -0.185811,0.19 -0.20439,0 -0.288004,-0.0855 -0.185811,-0.19 z m 45.337622,0.0475 c 0,-0.0784 0.0627,-0.1425 0.13936,-0.1425 0.0767,0 0.13936,0.0641 0.13936,0.1425 0,0.0784 -0.0627,0.1425 -0.13936,0.1425 -0.0767,0 -0.13936,-0.0641 -0.13936,-0.1425 z m -20.6249,-0.28499 c 0,-0.0784 0.0627,-0.1425 0.13936,-0.1425 0.0766,0 0.13936,0.0641 0.13936,0.1425 0,0.0784 -0.0627,0.14249 -0.13936,0.14249 -0.0766,0 -0.13936,-0.0641 -0.13936,-0.14249 z m 7.80402,0 c 0,-0.0784 0.0627,-0.1425 0.13936,-0.1425 0.0766,0 0.13935,0.0641 0.13935,0.1425 0,0.0784 -0.0627,0.14249 -0.13935,0.14249 -0.0767,0 -0.13936,-0.0641 -0.13936,-0.14249 z m 14.77189,-0.1425 c 0,-0.209 0.0836,-0.2945 0.18581,-0.19 0.10219,0.1045 0.10219,0.2755 0,0.38 -0.1022,0.10449 -0.18581,0.019 -0.18581,-0.19 z m 2.22972,0.1425 c 0,-0.0784 0.0627,-0.1425 0.13935,-0.1425 0.0767,0 0.13936,0.0641 0.13936,0.1425 0,0.0784 -0.0627,0.14249 -0.13936,0.14249 -0.0766,0 -0.13935,-0.0641 -0.13935,-0.14249 z m 1.39357,0 c 0,-0.0784 0.0627,-0.1425 0.13936,-0.1425 0.0767,0 0.13936,0.0641 0.13936,0.1425 0,0.0784 -0.0627,0.14249 -0.13936,0.14249 -0.0767,0 -0.13936,-0.0641 -0.13936,-0.14249 z m -51.84097,-0.4275 c 0,-0.20899 0.08361,-0.29449 0.185811,-0.19 0.102193,0.1045 0.102193,0.2755 0,0.38 -0.102197,0.1045 -0.185811,0.019 -0.185811,-0.19 z m 24.2482,0.1425 c 0,-0.0784 0.0627,-0.1425 0.13935,-0.1425 0.0767,0 0.13936,0.0641 0.13936,0.1425 0,0.0784 -0.0627,0.1425 -0.13936,0.1425 -0.0766,0 -0.13935,-0.0641 -0.13935,-0.1425 z m 25.36305,0 c 0,-0.0784 0.0627,-0.1425 0.13936,-0.1425 0.0767,0 0.13936,0.0641 0.13936,0.1425 0,0.0784 -0.0627,0.1425 -0.13936,0.1425 -0.0767,0 -0.13936,-0.0641 -0.13936,-0.1425 z m 13.65703,0 c 0,-0.0784 0.0627,-0.1425 0.13936,-0.1425 0.0767,0 0.13936,0.0641 0.13936,0.1425 0,0.0784 -0.0627,0.1425 -0.13936,0.1425 -0.0767,0 -0.13936,-0.0641 -0.13936,-0.1425 z m -62.432136,-0.285 c 0,-0.0784 0.06271,-0.14249 0.139358,-0.14249 0.07665,0 0.139357,0.0641 0.139357,0.14249 0,0.0784 -0.06271,0.1425 -0.139357,0.1425 -0.07665,0 -0.139358,-0.0641 -0.139358,-0.1425 z m 6.410443,0 c 0,-0.0784 0.06271,-0.14249 0.139358,-0.14249 0.07665,0 0.139357,0.0641 0.139357,0.14249 0,0.0784 -0.06271,0.1425 -0.139357,0.1425 -0.07665,0 -0.139358,-0.0641 -0.139358,-0.1425 z m 44.036953,-0.14249 c 0,-0.209 0.0836,-0.2945 0.18581,-0.19 0.1022,0.1045 0.1022,0.2755 0,0.37999 -0.10219,0.1045 -0.18581,0.019 -0.18581,-0.18999 z m -36.23294,-0.1425 c 0,-0.0784 0.0627,-0.1425 0.13936,-0.1425 0.0767,0 0.13936,0.0641 0.13936,0.1425 0,0.0784 -0.0627,0.1425 -0.13936,0.1425 -0.0766,0 -0.13936,-0.0641 -0.13936,-0.1425 z m 8.64017,-0.42749 c 0,-0.209 0.0836,-0.2945 0.18581,-0.19 0.10219,0.1045 0.10219,0.27549 0,0.37999 -0.1022,0.1045 -0.18581,0.019 -0.18581,-0.18999 z m -24.2482,-0.1425 c 0,-0.0784 0.06271,-0.1425 0.139357,-0.1425 0.07665,0 0.139358,0.0641 0.139358,0.1425 0,0.0784 -0.06271,0.1425 -0.139358,0.1425 -0.07665,0 -0.139357,-0.0641 -0.139357,-0.1425 z m 0.929049,-0.3325 c 0.102196,-0.10449 0.269425,-0.10449 0.371621,0 0.102194,0.1045 0.01858,0.19 -0.185811,0.19 -0.204389,0 -0.288004,-0.0855 -0.18581,-0.19 z m 48.124771,0.0475 c 0,-0.0784 0.0627,-0.1425 0.13936,-0.1425 0.0767,0 0.13936,0.0641 0.13936,0.1425 0,0.0784 -0.0627,0.1425 -0.13936,0.1425 -0.0767,0 -0.13936,-0.0641 -0.13936,-0.1425 z m 1.95101,0 c 0,-0.0784 0.0627,-0.1425 0.13935,-0.1425 0.0767,0 0.13936,0.0641 0.13936,0.1425 0,0.0784 -0.0627,0.1425 -0.13936,0.1425 -0.0766,0 -0.13935,-0.0641 -0.13935,-0.1425 z m -60.759852,-0.28499 c 0,-0.0784 0.06271,-0.1425 0.139358,-0.1425 0.07665,0 0.139357,0.0641 0.139357,0.1425 0,0.0784 -0.06271,0.14249 -0.139357,0.14249 -0.07665,0 -0.139358,-0.0641 -0.139358,-0.14249 z m 59.644992,0 c 0,-0.0784 0.0627,-0.1425 0.13935,-0.1425 0.0767,0 0.13936,0.0641 0.13936,0.1425 0,0.0784 -0.0627,0.14249 -0.13936,0.14249 -0.0766,0 -0.13935,-0.0641 -0.13935,-0.14249 z m 0.55743,0 c 0,-0.0784 0.0627,-0.1425 0.13935,-0.1425 0.0767,0 0.13936,0.0641 0.13936,0.1425 0,0.0784 -0.0627,0.14249 -0.13936,0.14249 -0.0766,0 -0.13935,-0.0641 -0.13935,-0.14249 z m -50.351221,-0.58229 c -0.09077,-0.24188 -0.08684,-0.51975 0.0088,-0.61749 0.09559,-0.0977 0.17379,0.0254 0.17379,0.27354 0,0.24818 0.156778,0.51593 0.348394,0.59499 0.272879,0.11259 0.270983,0.14863 -0.0088,0.16625 -0.19643,0.0124 -0.431411,-0.1754 -0.522184,-0.41729 z m 8.543983,0.29729 c 0,-0.0784 0.06271,-0.1425 0.139357,-0.1425 0.07665,0 0.139358,0.0641 0.139358,0.1425 0,0.0784 -0.06271,0.1425 -0.139358,0.1425 -0.07665,0 -0.139357,-0.0641 -0.139357,-0.1425 z m 52.641568,-0.64124 c -0.34669,-0.45202 -0.33683,-0.4621 0.10523,-0.1076 0.26826,0.21513 0.48775,0.43956 0.48775,0.49874 0,0.0592 -0.0474,0.1076 -0.10523,0.1076 -0.0579,0 -0.27737,-0.22443 -0.48775,-0.49874 z m -12.36727,-0.0712 c 0.0947,-0.15675 0.23497,-0.28499 0.31162,-0.28499 0.0766,0 0.0618,0.12824 -0.0329,0.28499 -0.0947,0.15675 -0.23497,0.285 -0.31161,0.285 -0.0767,0 -0.0618,-0.12825 0.0329,-0.285 z m 1.81165,0.1425 c 0,-0.0784 0.0627,-0.1425 0.13936,-0.1425 0.0767,0 0.13936,0.0641 0.13936,0.1425 0,0.0784 -0.0627,0.1425 -0.13936,0.1425 -0.0767,0 -0.13936,-0.0641 -0.13936,-0.1425 z m -51.376444,-0.3325 c -0.102196,-0.10449 -0.185811,-0.32251 -0.185811,-0.48449 0,-0.17858 0.129817,-0.16175 0.329812,0.0427 0.181399,0.18549 0.265013,0.40351 0.185811,0.48449 -0.0792,0.081 -0.227618,0.0617 -0.329812,-0.0427 z m 1.951004,0 c -0.102196,-0.10449 -0.185811,-0.29686 -0.185811,-0.42749 0,-0.13062 0.104519,-0.23749 0.232262,-0.23749 0.127746,0 0.232264,0.19237 0.232264,0.42749 0,0.23512 -0.0209,0.42749 -0.04645,0.42749 -0.02556,0 -0.130068,-0.0855 -0.232262,-0.19 z m 49.14673,-0.23749 c 0,-0.0784 0.0627,-0.1425 0.13935,-0.1425 0.0767,0 0.13936,0.0641 0.13936,0.1425 0,0.0784 -0.0627,0.1425 -0.13936,0.1425 -0.0766,0 -0.13935,-0.0641 -0.13935,-0.1425 z m -50.334657,-0.47153 c -0.123214,-0.20386 -0.07646,-0.25167 0.122908,-0.12568 0.176978,0.11185 0.321779,0.25991 0.321779,0.32903 0,0.0691 -0.05531,0.12568 -0.122908,0.12568 -0.0676,0 -0.2124,-0.14806 -0.321779,-0.32903 z M 78.86182,105.5936 c 0.09474,-0.15675 0.234965,-0.285 0.311612,-0.285 0.07665,0 0.06184,0.12825 -0.0329,0.285 -0.09474,0.15675 -0.234965,0.285 -0.311612,0.285 -0.07665,0 -0.06184,-0.12825 0.0329,-0.285 z m 26.05984,0.1425 c 0,-0.0784 0.0627,-0.1425 0.13936,-0.1425 0.0767,0 0.13936,0.0641 0.13936,0.1425 0,0.0784 -0.0627,0.1425 -0.13936,0.1425 -0.0767,0 -0.13936,-0.0641 -0.13936,-0.1425 z m 11.98474,-0.285 c 0,-0.0784 0.0627,-0.1425 0.13936,-0.1425 0.0767,0 0.13936,0.0641 0.13936,0.1425 0,0.0784 -0.0627,0.1425 -0.13936,0.1425 -0.0767,0 -0.13936,-0.0641 -0.13936,-0.1425 z m 18.81326,-0.1425 c 0.0947,-0.15674 0.23496,-0.28499 0.31161,-0.28499 0.0767,0 0.0618,0.12825 -0.0329,0.28499 -0.0947,0.15675 -0.23496,0.285 -0.31161,0.285 -0.0766,0 -0.0618,-0.12825 0.0329,-0.285 z m -49.471895,-0.56999 c 0,-0.31349 0.09855,-0.56999 0.218989,-0.56999 0.120447,0 0.218992,0.2565 0.218992,0.56999 0,0.3135 -0.09855,0.56999 -0.218992,0.56999 -0.120444,0 -0.218989,-0.25649 -0.218989,-0.56999 z m 19.510045,0.4275 c 0,-0.0784 0.0627,-0.1425 0.13936,-0.1425 0.0766,0 0.13935,0.0641 0.13935,0.1425 0,0.0784 -0.0627,0.14249 -0.13935,0.14249 -0.0767,0 -0.13936,-0.0641 -0.13936,-0.14249 z m 31.09463,-0.34396 c -0.15126,-0.40617 -0.11924,-0.43891 0.15602,-0.15954 0.19048,0.19333 0.27612,0.42329 0.1903,0.51104 -0.0858,0.0877 -0.24166,-0.0704 -0.34632,-0.3515 z m 8.7616,-0.22604 c 0,-0.0784 0.0627,-0.14249 0.13936,-0.14249 0.0766,0 0.13935,0.0641 0.13935,0.14249 0,0.0784 -0.0627,0.1425 -0.13935,0.1425 -0.0767,0 -0.13936,-0.0641 -0.13936,-0.1425 z m -37.06908,-0.56999 c 0,-0.0784 0.0627,-0.14249 0.13935,-0.14249 0.0767,0 0.13936,0.0641 0.13936,0.14249 0,0.0784 -0.0627,0.1425 -0.13936,0.1425 -0.0766,0 -0.13935,-0.0641 -0.13935,-0.1425 z m 27.31406,0 c 0,-0.0784 0.0627,-0.14249 0.13935,-0.14249 0.0767,0 0.13936,0.0641 0.13936,0.14249 0,0.0784 -0.0627,0.1425 -0.13936,0.1425 -0.0766,0 -0.13935,-0.0641 -0.13935,-0.1425 z m 9.19759,0 c 0,-0.0784 0.0627,-0.14249 0.13936,-0.14249 0.0766,0 0.13935,0.0641 0.13935,0.14249 0,0.0784 -0.0627,0.1425 -0.13935,0.1425 -0.0767,0 -0.13936,-0.0641 -0.13936,-0.1425 z m -58.667514,-0.42423 c -0.09764,-0.16155 0.01424,-0.20933 0.262265,-0.112 0.237903,0.0934 0.432549,0.22013 0.432549,0.28173 0,0.0616 -0.118019,0.11201 -0.262265,0.11201 -0.144247,0 -0.338895,-0.12678 -0.432549,-0.28174 z m 24.106864,0.13924 c 0,-0.0784 0.0627,-0.1425 0.13936,-0.1425 0.0767,0 0.13936,0.0641 0.13936,0.1425 0,0.0784 -0.0627,0.1425 -0.13936,0.1425 -0.0766,0 -0.13936,-0.0641 -0.13936,-0.1425 z m 1.39358,0 c 0,-0.0784 0.0627,-0.1425 0.13935,-0.1425 0.0767,0 0.13936,0.0641 0.13936,0.1425 0,0.0784 -0.0627,0.1425 -0.13936,0.1425 -0.0766,0 -0.13935,-0.0641 -0.13935,-0.1425 z m 25.18237,-0.35912 c 0.10128,-0.16758 0.0266,-0.36964 -0.16598,-0.44903 -0.2506,-0.10331 -0.25577,-0.15073 -0.0182,-0.16684 0.18257,-0.0124 0.40411,0.0969 0.4923,0.24281 0.0882,0.14591 0.0135,0.3581 -0.16597,0.47152 -0.1945,0.12292 -0.25193,0.0831 -0.14217,-0.0985 z m -38.281975,-0.21087 c 0,-0.0784 0.06271,-0.1425 0.139358,-0.1425 0.07665,0 0.139357,0.0641 0.139357,0.1425 0,0.0784 -0.06271,0.14249 -0.139357,0.14249 -0.07665,0 -0.139358,-0.0641 -0.139358,-0.14249 z m -17.140966,-0.4275 c 0.09474,-0.15674 0.234965,-0.28499 0.311612,-0.28499 0.07665,0 0.06184,0.12825 -0.0329,0.28499 -0.09474,0.15675 -0.234965,0.285 -0.311612,0.285 -0.07665,0 -0.06184,-0.12825 0.0329,-0.285 z m 53.373901,0.1425 c 0,-0.0784 0.0627,-0.1425 0.13936,-0.1425 0.0767,0 0.13936,0.0641 0.13936,0.1425 0,0.0784 -0.0627,0.1425 -0.13936,0.1425 -0.0767,0 -0.13936,-0.0641 -0.13936,-0.1425 z m 1.11486,0 c 0,-0.0784 0.0627,-0.1425 0.13936,-0.1425 0.0767,0 0.13936,0.0641 0.13936,0.1425 0,0.0784 -0.0627,0.1425 -0.13936,0.1425 -0.0767,0 -0.13936,-0.0641 -0.13936,-0.1425 z m -1.29739,-0.86728 c -0.0908,-0.24188 -0.10277,-0.50346 -0.0266,-0.58129 0.0761,-0.0778 0.20529,0.12007 0.28706,0.43978 0.0818,0.31971 0.0937,0.5813 0.0266,0.5813 -0.0671,0 -0.19628,-0.19791 -0.28705,-0.43979 z m 1.01868,0.29729 c 0,-0.0784 0.0627,-0.1425 0.13935,-0.1425 0.0767,0 0.13936,0.0641 0.13936,0.1425 0,0.0784 -0.0627,0.1425 -0.13936,0.1425 -0.0766,0 -0.13935,-0.0641 -0.13935,-0.1425 z m 7.08061,-0.47153 c -0.12321,-0.20386 -0.0764,-0.25167 0.12291,-0.12568 0.17698,0.11185 0.32178,0.25991 0.32178,0.32904 0,0.0691 -0.0553,0.12567 -0.12291,0.12567 -0.0676,0 -0.2124,-0.14806 -0.32178,-0.32903 z m -7.91676,-0.95345 c 0,-0.0784 0.0627,-0.1425 0.13936,-0.1425 0.0767,0 0.13936,0.0641 0.13936,0.1425 0,0.0784 -0.0627,0.1425 -0.13936,0.1425 -0.0767,0 -0.13936,-0.0641 -0.13936,-0.1425 z m 0.27872,-0.56999 c 0,-0.0784 0.0627,-0.1425 0.13935,-0.1425 0.0767,0 0.13936,0.0641 0.13936,0.1425 0,0.0784 -0.0627,0.1425 -0.13936,0.1425 -0.0766,0 -0.13935,-0.0641 -0.13935,-0.1425 z m -50.168685,-0.28499 c 0,-0.07838 0.06271,-0.142502 0.139358,-0.142502 0.07665,0 0.139357,0.06412 0.139357,0.142502 0,0.0784 -0.06271,0.14249 -0.139357,0.14249 -0.07665,0 -0.139358,-0.0641 -0.139358,-0.14249 z m 35.675505,0 c 0,-0.07838 0.0627,-0.142502 0.13936,-0.142502 0.0767,0 0.13936,0.06412 0.13936,0.142502 0,0.0784 -0.0627,0.14249 -0.13936,0.14249 -0.0767,0 -0.13936,-0.0641 -0.13936,-0.14249 z m 14.77189,-0.285 c 0,-0.07837 0.0627,-0.142498 0.13936,-0.142498 0.0767,0 0.13936,0.06412 0.13936,0.142498 0,0.07837 -0.0627,0.142498 -0.13936,0.142498 -0.0767,0 -0.13936,-0.06412 -0.13936,-0.142498 z m 5.12961,-0.186533 c -0.12321,-0.203857 -0.0764,-0.251668 0.12291,-0.125677 0.17698,0.111844 0.32178,0.259907 0.32178,0.32903 0,0.06912 -0.0553,0.125678 -0.12291,0.125678 -0.0676,0 -0.2124,-0.148064 -0.32178,-0.329031 z m -2.06374,-2.093432 c 0,-0.07837 0.0627,-0.142498 0.13935,-0.142498 0.0767,0 0.13936,0.06412 0.13936,0.142498 0,0.07837 -0.0627,0.142498 -0.13936,0.142498 -0.0766,0 -0.13935,-0.06412 -0.13935,-0.142498 z M 93.494352,96.901234 c 0,-0.07837 0.06271,-0.142498 0.139358,-0.142498 0.07665,0 0.139357,0.06412 0.139357,0.142498 0,0.07837 -0.06271,0.142498 -0.139357,0.142498 -0.07665,0 -0.139358,-0.06412 -0.139358,-0.142498 z m 44.594388,0 c 0,-0.07837 0.0627,-0.142498 0.13935,-0.142498 0.0767,0 0.13936,0.06412 0.13936,0.142498 0,0.07837 -0.0627,0.142498 -0.13936,0.142498 -0.0766,0 -0.13935,-0.06412 -0.13935,-0.142498 z m -22.57591,-0.854987 c 0,-0.07837 0.0627,-0.142498 0.13936,-0.142498 0.0766,0 0.13935,0.06412 0.13935,0.142498 0,0.07837 -0.0627,0.142498 -0.13935,0.142498 -0.0767,0 -0.13936,-0.06412 -0.13936,-0.142498 z m 20.90362,-0.854987 c 0,-0.07837 0.0627,-0.142498 0.13935,-0.142498 0.0767,0 0.13936,0.06412 0.13936,0.142498 0,0.07837 -0.0627,0.142498 -0.13936,0.142498 -0.0766,0 -0.13935,-0.06412 -0.13935,-0.142498 z m -22.85462,-0.284995 c 0,-0.07837 0.0627,-0.142498 0.13935,-0.142498 0.0767,0 0.13936,0.06412 0.13936,0.142498 0,0.07837 -0.0627,0.142497 -0.13936,0.142497 -0.0766,0 -0.13935,-0.06412 -0.13935,-0.142497 z m -0.55743,-0.284996 c 0,-0.07837 0.0627,-0.142498 0.13935,-0.142498 0.0767,0 0.13936,0.06412 0.13936,0.142498 0,0.07837 -0.0627,0.142498 -0.13936,0.142498 -0.0766,0 -0.13935,-0.06412 -0.13935,-0.142498 z M 92.658208,93.481287 c 0,-0.07837 0.06271,-0.142498 0.139357,-0.142498 0.07665,0 0.139358,0.06412 0.139358,0.142498 0,0.07837 -0.06271,0.142497 -0.139358,0.142497 -0.07665,0 -0.139357,-0.06412 -0.139357,-0.142497 z m 41.214252,-0.926236 c -0.34669,-0.45202 -0.33683,-0.462101 0.10523,-0.107603 0.26826,0.215129 0.48775,0.439563 0.48775,0.498742 0,0.05918 -0.0473,0.107603 -0.10523,0.107603 -0.0579,0 -0.27736,-0.224434 -0.48775,-0.498742 z M 96.002786,92.6263 c 0,-0.07837 0.06271,-0.142498 0.139358,-0.142498 0.07665,0 0.139357,0.06412 0.139357,0.142498 0,0.07837 -0.06271,0.142498 -0.139357,0.142498 -0.07665,0 -0.139358,-0.06412 -0.139358,-0.142498 z m 1.11486,-0.284996 c 0,-0.07837 0.06271,-0.142498 0.139358,-0.142498 0.07665,0 0.139357,0.06412 0.139357,0.142498 0,0.07837 -0.06271,0.142498 -0.139357,0.142498 -0.07665,0 -0.139358,-0.06412 -0.139358,-0.142498 z m 1.951004,-0.284995 c 0,-0.07837 0.06271,-0.142498 0.139358,-0.142498 0.07665,0 0.139357,0.06412 0.139357,0.142498 0,0.07837 -0.06271,0.142497 -0.139357,0.142497 -0.07665,0 -0.139358,-0.06412 -0.139358,-0.142497 z m 30.10121,-3.419948 c 0,-0.07837 0.0627,-0.142497 0.13936,-0.142497 0.0766,0 0.13935,0.06412 0.13935,0.142497 0,0.07837 -0.0627,0.142498 -0.13935,0.142498 -0.0767,0 -0.13936,-0.06412 -0.13936,-0.142498 z m -27.03535,-2.279964 c 0,-0.07837 0.0627,-0.142498 0.13936,-0.142498 0.0767,0 0.13936,0.06412 0.13936,0.142498 0,0.07837 -0.0627,0.142497 -0.13936,0.142497 -0.0766,0 -0.13936,-0.06412 -0.13936,-0.142497 z m 7.80402,-2.279965 c 0,-0.07837 0.0627,-0.142498 0.13936,-0.142498 0.0767,0 0.13936,0.06412 0.13936,0.142498 0,0.07837 -0.0627,0.142498 -0.13936,0.142498 -0.0767,0 -0.13936,-0.06412 -0.13936,-0.142498 z"
         id="path2919" /></g></g></svg>
