<?xml version="1.0" encoding="UTF-8" standalone="no"?>
<!-- Created with Inkscape (http://www.inkscape.org/) -->

<svg width="16mm" height="16mm" viewBox="0 0 84.648582 61.479263" version="1.1" id="svg5" xml:space="preserve"
  inkscape:export-filename="bitmap.svg" inkscape:export-xdpi="96" inkscape:export-ydpi="96"
  xmlns:inkscape="http://www.inkscape.org/namespaces/inkscape"
  xmlns:sodipodi="http://sodipodi.sourceforge.net/DTD/sodipodi-0.dtd" xmlns="http://www.w3.org/2000/svg"
  xmlns:svg="http://www.w3.org/2000/svg">
  <sodipodi:namedview id="namedview7" pagecolor="#ffffff" bordercolor="#000000" borderopacity="0.25"
    inkscape:showpageshadow="2" inkscape:pageopacity="0.0" inkscape:pagecheckerboard="0" inkscape:deskcolor="#d1d1d1"
    inkscape:document-units="mm" showgrid="false" />
  <defs id="defs2" />
  <g inkscape:label="Layer 1" inkscape:groupmode="layer" id="layer1" transform="translate(204.28783,-181.46017)">
    <g id="g2915" transform="translate(-272.73855,-26.30367)" style="fill:#ffffff">
      <path style="fill:#000000;fill-opacity:1;stroke-width:0.281838"
        d="m 105.06331,269.10119 c -0.45988,-0.0565 -1.7141,-0.3027 -2.78715,-0.54719 -1.07305,-0.2445 -2.82895,-0.77826 -3.902007,-1.18613 -1.073052,-0.40788 -2.515402,-1.05856 -3.205221,-1.44597 -0.68982,-0.3874 -1.944037,-1.16135 -2.787149,-1.71987 -0.843113,-0.55853 -3.430365,-2.92061 -5.749448,-5.24907 -4.216519,-4.23355 -4.216519,-4.23355 -4.180724,-7.0658 0.02171,-1.71751 -0.07391,-2.83573 -0.242922,-2.84109 -0.153293,-0.005 -0.0545,-0.14226 0.219538,-0.30534 0.274038,-0.16307 0.650303,-0.23342 0.836145,-0.15633 0.185838,0.0771 0.08705,0.15437 -0.219539,0.17174 -0.495538,0.0281 -0.508295,0.0701 -0.114894,0.37874 0.243393,0.19095 0.526345,0.53955 0.628775,0.77467 0.102433,0.23512 0.120391,0.0748 0.03991,-0.35624 -0.10658,-0.57083 -0.03369,-0.78374 0.2683,-0.78374 0.240731,0 0.351886,0.16721 0.265024,0.39867 -0.08228,0.21926 -0.0047,0.49023 0.172391,0.60216 0.177101,0.11192 0.467851,0.0521 0.646108,-0.13286 0.246855,-0.25618 0.209042,-0.42329 -0.15863,-0.70108 -0.432156,-0.32651 -0.370354,-0.39916 0.589766,-0.6933 0.589878,-0.18072 1.148041,-0.32858 1.24036,-0.32858 0.09232,0 0.207578,1.50692 0.256125,3.3487 0.08827,3.3487 0.08827,3.3487 0.148203,0.0332 0.05513,-3.04949 0.10468,-3.32742 0.617747,-3.46462 0.351306,-0.0939 0.489947,-0.0369 0.37449,0.15415 -0.117473,0.19436 0.0327,0.24555 0.418072,0.1425 0.368876,-0.0986 0.533873,-0.0491 0.426752,0.12814 -0.109811,0.18168 0.07111,0.22085 0.487366,0.10551 0.573949,-0.15904 0.557759,-0.12275 -0.121701,0.2728 -0.431041,0.25094 -0.734143,0.60831 -0.673562,0.79415 0.06058,0.18585 0.287835,0.3379 0.504998,0.3379 0.217166,0 0.377427,-0.22443 0.356136,-0.49874 -0.02129,-0.27431 0.14394,-0.49874 0.367177,-0.49874 0.278441,0 0.350581,0.17817 0.229756,0.56744 -0.09687,0.31209 -0.09416,0.70307 0.006,0.86883 0.125711,0.20799 0.304025,0.19796 0.575421,-0.0324 0.333044,-0.28263 0.393258,0.0207 0.393258,1.98113 0,1.27317 0.09407,2.31466 0.209036,2.31441 0.11497,-2.5e-4 0.209036,-1.33594 0.209036,-2.9682 0,-2.96775 0,-2.96775 -2.16004,-3.73636 -2.10206,-0.74797 -2.160041,-0.79367 -2.160041,-1.7028 0,-0.93419 0,-0.93419 2.019638,-0.17189 1.772688,0.66909 2.041294,0.86562 2.196742,1.6073 0.177106,0.845 0.177106,0.845 0.210084,-0.0902 0.01934,-0.54862 -0.122598,-0.99623 -0.343391,-1.08286 -0.276989,-0.10869 -0.426918,-1.17768 -0.567823,-4.04862 -0.105301,-2.14552 -0.312202,-4.02441 -0.459779,-4.17531 -0.147566,-0.1509 -0.268311,-0.69002 -0.268311,-1.19804 0,-0.50801 -0.09921,-0.98636 -0.220466,-1.06299 -0.121257,-0.0766 -0.167156,0.3276 -0.101998,0.89829 0.118465,1.03762 0.118465,1.03762 -0.546,0.54595 -0.365457,-0.27042 -1.064649,-0.70234 -1.553758,-0.95984 -0.871471,-0.45878 -0.916149,-0.45023 -2.229719,0.42641 -1.340429,0.89457 -1.340429,0.89457 -1.433525,0.13526 -0.06392,-0.52139 0.09631,-0.9054 0.511383,-1.22554 0.332465,-0.25643 1.030253,-0.7007 1.550642,-0.98726 0.946161,-0.52102 0.946161,-0.52102 2.136408,0.27302 1.10921,0.73999 1.14886,0.74768 0.582347,0.11299 -0.334347,-0.37459 -0.831476,-1.50555 -1.104731,-2.51324 -0.374791,-1.38213 -0.413739,-1.8605 -0.158567,-1.94747 0.186045,-0.0634 0.338265,-0.29698 0.338265,-0.51904 0,-0.22206 -0.246431,-0.40374 -0.547624,-0.40374 -0.301194,0 -0.686372,-0.2651 -0.855953,-0.58911 -0.239846,-0.45825 -0.209644,-0.74311 0.135976,-1.28248 0.418725,-0.65345 0.412752,-0.69338 -0.103743,-0.69338 -0.30143,0 -0.743296,0.28504 -0.981929,0.63341 -0.23863,0.34837 -0.433876,0.92549 -0.433876,1.28248 0,0.35699 0.250844,0.90557 0.55743,1.21907 0.306586,0.31349 0.566246,0.92267 0.577021,1.35373 0.01736,0.69448 0.04687,0.71883 0.259124,0.21374 0.179358,-0.42679 0.244458,-0.22319 0.259124,0.81042 0.01633,1.15003 -0.07344,1.40529 -0.537839,1.52947 -0.306586,0.082 -0.55743,0.23318 -0.55743,0.336 0,0.10282 -0.438976,0.42868 -0.975502,0.72413 -0.845897,0.46581 -0.975502,0.67804 -0.975502,1.59739 0,0.59472 -0.183553,1.21598 -0.418073,1.41499 -0.333582,0.28309 -0.418072,1.12708 -0.418072,4.17628 0,3.11972 -0.07613,3.85136 -0.414594,3.98417 -0.35134,0.13786 -0.38699,0.75117 -0.233669,4.02009 0.107411,2.29015 0.07769,3.81259 -0.07316,3.74707 -0.139742,-0.0607 -3.246557,-3.21036 -6.904033,-6.99926 -3.657472,-3.7889 -6.604882,-7.02485 -6.549798,-7.191 0.05508,-0.16615 3.235694,-3.52791 7.068024,-7.47059 3.83233,-3.94268 7.623494,-7.60215 8.42481,-8.13215 0.801314,-0.52999 2.306374,-1.39433 3.344579,-1.92075 1.038202,-0.52641 2.577461,-1.13118 3.420573,-1.34392 0.843113,-0.21274 2.84986,-0.38739 4.459439,-0.38811 1.905688,-8.6e-4 3.607053,0.17685 4.877504,0.50945 1.07305,0.28092 2.95438,1.00569 4.18073,1.6106 1.95236,0.96304 2.12069,1.10287 1.35325,1.1241 -0.48206,0.0133 -1.68261,0.27885 -2.66789,0.59003 -0.98529,0.31118 -2.53839,1.05944 -3.45133,1.6628 -0.912944,0.60337 -2.241489,1.77685 -2.95232,2.60775 -0.710832,0.8309 -1.612542,2.11214 -2.003799,2.84721 -0.391257,0.73507 -0.903635,2.09126 -1.13862,3.01375 -0.234984,0.9225 -0.427245,2.71716 -0.427245,3.98813 0,1.2957 0.197425,2.99086 0.449411,3.85881 0.247173,0.85137 0.82129,2.30141 1.275812,3.22229 0.513349,1.04008 1.794852,2.699 3.382919,4.37924 1.406082,1.4877 3.748022,3.62115 5.204302,4.741 1.45629,1.11986 3.53375,2.51015 4.61658,3.08955 1.08283,0.5794 3.08957,1.43731 4.45943,1.90648 1.36987,0.46918 3.64063,0.99593 5.04613,1.17057 1.84894,0.22973 3.29893,0.23275 5.24448,0.0109 1.47895,-0.16863 3.40182,-0.55271 4.27304,-0.85351 0.87122,-0.30081 1.83488,-0.63813 2.14146,-0.74961 0.32099,-0.11671 -0.0928,0.48447 -0.9755,1.41733 -0.84311,0.89101 -2.4451,2.26553 -3.55996,3.05448 -1.11487,0.78896 -2.93348,1.85744 -4.04137,2.3744 -1.10787,0.51696 -2.82957,1.22531 -3.82597,1.57411 -0.99641,0.3488 -2.94044,0.81157 -4.32008,1.02838 -1.37964,0.21682 -3.38639,0.37729 -4.45944,0.35662 -1.07305,-0.0207 -2.32727,-0.0838 -2.78715,-0.14025 z M 83.001655,249.75476 c -0.09077,-0.24188 -0.22482,-0.37866 -0.297877,-0.30395 -0.07306,0.0747 -0.05016,0.27261 0.05088,0.43978 0.101045,0.16718 0.235087,0.30396 0.297876,0.30396 0.06279,0 0.03989,-0.19791 -0.05088,-0.43979 z m 3.2484,-0.24221 c 0,-0.0616 -0.194646,-0.18838 -0.432549,-0.28173 -0.248034,-0.0973 -0.35991,-0.0495 -0.262265,0.112 0.09365,0.15496 0.288303,0.28174 0.432549,0.28174 0.144246,0 0.262265,-0.0504 0.262265,-0.11201 z m 1.782936,-0.12549 c 0.07895,-0.13062 -0.03355,-0.2375 -0.250004,-0.2375 -0.216453,0 -0.328956,0.10688 -0.250005,0.2375 0.07895,0.13062 0.191452,0.2375 0.250005,0.2375 0.05855,0 0.171055,-0.10688 0.250004,-0.2375 z m -1.858421,-0.78968 c -0.09262,-0.0947 -0.333008,-0.10482 -0.534204,-0.0225 -0.222339,0.091 -0.156298,0.15851 0.168391,0.17218 0.29381,0.0124 0.458428,-0.055 0.365813,-0.14968 z m 1.469059,0.0297 c 0,-0.0784 -0.06271,-0.1425 -0.139357,-0.1425 -0.07665,0 -0.139358,0.0641 -0.139358,0.1425 0,0.0784 0.06271,0.1425 0.139358,0.1425 0.07665,0 0.139357,-0.0641 0.139357,-0.1425 z m 0.55743,0 c 0,-0.0784 -0.06271,-0.1425 -0.139357,-0.1425 -0.07665,0 -0.139358,0.0641 -0.139358,0.1425 0,0.0784 0.06271,0.1425 0.139358,0.1425 0.07665,0 0.139357,-0.0641 0.139357,-0.1425 z M 85.885772,232.8865 c -0.07067,-0.27729 -0.133131,-0.11942 -0.138812,0.35082 -0.0057,0.47024 0.05214,0.69712 0.128485,0.50417 0.07635,-0.19295 0.08099,-0.5777 0.01034,-0.85499 z m 35.860818,22.85166 c -0.94153,-0.21125 -2.47224,-0.70001 -3.40159,-1.08615 -0.92934,-0.38613 -1.95799,-0.8942 -2.28587,-1.12904 -0.5702,-0.40838 -0.52523,-0.44201 1.03252,-0.77226 0.89578,-0.1899 2.44392,-0.73677 3.44033,-1.21526 1.20097,-0.57672 2.43316,-1.50288 3.65548,-2.74758 1.10397,-1.1242 2.19541,-2.5898 2.72003,-3.65249 0.48192,-0.97617 1.06133,-2.57773 1.28759,-3.55901 0.22627,-0.98128 0.41139,-2.48952 0.41139,-3.35163 0,-0.86211 -0.18512,-2.37034 -0.41139,-3.35162 -0.22626,-0.98128 -0.7972,-2.56569 -1.26877,-3.52089 -0.53307,-1.07982 -1.77279,-2.70883 -3.27746,-4.30667 -1.33105,-1.41345 -3.37954,-3.35587 -4.5522,-4.31649 -1.17267,-0.96061 -3.11671,-2.33926 -4.32008,-3.06367 -1.20338,-0.7244 -3.21541,-1.71705 -4.47118,-2.20588 -1.25578,-0.48883 -3.45066,-1.0974 -4.87751,-1.35238 -1.82542,-0.32621 -3.46162,-0.41788 -5.5208,-0.30931 -2.018791,0.10644 -3.614381,0.37838 -5.144267,0.87674 -1.21977,0.39735 -2.278031,0.66082 -2.351693,0.58549 -0.07366,-0.0753 0.422646,-0.71723 1.102906,-1.42647 0.680259,-0.70924 2.114785,-1.90971 3.187838,-2.66772 1.073052,-0.75801 2.452691,-1.66653 3.065866,-2.01892 0.61317,-0.3524 2.18094,-1.06149 3.48393,-1.57576 1.303,-0.51428 3.53761,-1.15378 4.96581,-1.42112 1.93121,-0.3615 3.5027,-0.44991 6.13172,-0.345 2.37605,0.0948 4.31171,0.34967 5.90407,0.77735 1.30299,0.34996 3.27703,1.06187 4.38674,1.58204 1.10971,0.52017 3.05375,1.64024 4.32008,2.48905 1.8149,1.21652 4.60406,3.90662 13.1723,12.70448 5.97844,6.13865 10.91323,11.29317 10.96621,11.45448 0.053,0.16131 -2.79529,3.2492 -6.32949,6.86196 -6.2124,6.3505 -6.43164,6.54183 -6.60083,5.76066 -0.0963,-0.4444 -0.21685,-0.93626 -0.26798,-1.093 -0.0511,-0.15675 -0.10288,0.30019 -0.11498,1.01541 -0.0175,1.03521 -0.17831,1.44908 -0.78847,2.02939 -0.42156,0.40094 -1.63544,1.2579 -2.69752,1.90434 -1.06208,0.64645 -2.62563,1.44109 -3.47456,1.76587 -0.84893,0.32479 -2.1606,0.71018 -2.91482,0.85644 -0.75422,0.14626 -2.51435,0.25305 -3.91139,0.23731 -1.39703,-0.0157 -3.31042,-0.20145 -4.25196,-0.41269 z m 10.53064,-9.36625 c 0.18379,0.11615 0.17153,-0.0496 -0.0325,-0.43947 -0.31077,-0.59377 -0.29429,-0.60779 0.32059,-0.27272 0.57028,0.31076 0.60603,0.30092 0.29737,-0.0819 -0.30032,-0.37246 -0.14447,-0.52282 1.08235,-1.04415 0.78825,-0.33496 1.54188,-0.60902 1.67473,-0.60902 0.13285,0 0.24155,0.19994 0.24155,0.44431 0,0.24437 -0.12853,0.36309 -0.28562,0.26381 -0.15709,-0.0993 -0.25116,-0.0748 -0.20904,0.0544 0.0421,0.12921 -0.0488,0.23493 -0.20213,0.23493 -0.15329,0 -0.24425,-0.10572 -0.20213,-0.23493 0.0421,-0.12921 -0.058,-0.14986 -0.22257,-0.0459 -0.20951,0.1324 -0.20049,0.31061 0.0301,0.59469 0.24951,0.30741 0.42152,0.32732 0.71032,0.0822 0.31346,-0.26601 0.39001,-0.0517 0.43134,1.20772 0.0502,1.53112 0.0502,1.53112 0.1549,0.1704 0.0731,-0.94993 0.20516,-1.30297 0.43752,-1.16942 0.23284,0.13382 0.22816,0.076 -0.0156,-0.19251 -0.19161,-0.21109 -0.34839,-0.61465 -0.34839,-0.89679 0,-0.28215 0.15678,-0.51496 0.3484,-0.51736 0.2362,-0.003 0.21376,-0.10172 -0.0697,-0.30669 -0.33535,-0.24251 -0.33929,-0.28058 -0.0199,-0.19242 0.22196,0.0613 0.42909,0.52441 0.46806,1.04655 0.0384,0.51515 0.15998,1.02051 0.27009,1.12302 0.11012,0.10251 0.13072,-0.10218 0.0458,-0.45486 -0.0849,-0.35269 -0.0831,-0.64124 0.004,-0.64124 0.0871,0 0.69765,0.3231 1.35666,0.71801 0.80553,0.48272 1.14631,0.8563 1.03985,1.13999 -0.0871,0.23208 -0.27037,0.42196 -0.40726,0.42196 -0.13689,0 -0.2489,-0.11756 -0.2489,-0.26125 0,-0.14368 0.12856,-0.32643 0.28568,-0.40611 0.15713,-0.0797 0.12577,-0.11175 -0.0697,-0.0712 -0.19544,0.0405 -0.35536,0.25531 -0.35536,0.47736 0,0.22981 0.2384,0.38188 0.55337,0.35299 0.30435,-0.0279 0.64733,0.10032 0.76219,0.28499 0.11486,0.18467 0.20732,-0.17723 0.20545,-0.80422 -0.003,-1.06475 -0.0865,-1.18287 -1.26298,-1.78981 -0.69278,-0.3574 -1.39853,-0.56202 -1.56834,-0.4547 -0.18242,0.11527 -0.23038,0.0654 -0.11721,-0.12178 0.11088,-0.18345 -0.15621,-0.50077 -0.63424,-0.75354 -0.78102,-0.41298 -0.92645,-0.39047 -2.68289,0.41535 -1.02141,0.4686 -2.09626,0.85201 -2.38856,0.85201 -0.29229,0 -0.53145,0.12067 -0.53145,0.26817 0,0.1475 0.12543,0.34744 0.27872,0.44432 0.15329,0.0969 0.30424,1.41898 0.33545,2.93802 0.0567,2.76189 0.0567,2.76189 0.15078,0.40107 0.0625,-1.5679 0.19316,-2.29818 0.38914,-2.17432 z m 7.48608,-0.87978 c 0,-0.0784 0.0627,-0.1425 0.13935,-0.1425 0.0767,0 0.13936,0.0641 0.13936,0.1425 0,0.0784 -0.0627,0.1425 -0.13936,0.1425 -0.0766,0 -0.13935,-0.0641 -0.13935,-0.1425 z m -1.18454,-0.5905 c -0.42156,-0.23385 -0.76647,-0.48851 -0.76647,-0.5659 0,-0.0774 0.37627,0.0582 0.83615,0.30141 0.45988,0.24318 0.83614,0.50296 0.83614,0.57731 0,0.0743 -0.0314,0.13005 -0.0697,0.12377 -0.0383,-0.006 -0.41459,-0.20274 -0.83614,-0.43659 z m -6.80529,-0.027 c 0.10219,-0.1045 0.26942,-0.1045 0.37162,0 0.10219,0.1045 0.0186,0.19 -0.18581,0.19 -0.20439,0 -0.28801,-0.0855 -0.18581,-0.19 z m 1.30067,-0.52249 c 0.38323,-0.22401 0.82221,-0.4073 0.9755,-0.4073 0.15329,0 -0.0348,0.18329 -0.41807,0.4073 -0.38324,0.22401 -0.82221,0.40729 -0.9755,0.40729 -0.1533,0 0.0348,-0.18328 0.41807,-0.40729 z m 1.67229,-0.71249 c 0.22994,-0.15195 0.54349,-0.27627 0.69678,-0.27627 0.1533,0 0.0906,0.12432 -0.13935,0.27627 -0.22994,0.15195 -0.5435,0.27627 -0.69679,0.27627 -0.15329,0 -0.0906,-0.12432 0.13936,-0.27627 z m -1.67229,2.70746 c 0,-0.0784 -0.0627,-0.1425 -0.13936,-0.1425 -0.0767,0 -0.13936,0.0641 -0.13936,0.1425 0,0.0784 0.0627,0.1425 0.13936,0.1425 0.0767,0 0.13936,-0.0641 0.13936,-0.1425 z m 5.18284,-0.18653 c 0.12321,-0.20386 0.0765,-0.25167 -0.12291,-0.12568 -0.19575,0.1237 -0.32178,0.0107 -0.32178,-0.28846 0,-0.2705 -0.0782,-0.41185 -0.17379,-0.31411 -0.0956,0.0977 -0.0995,0.37561 -0.009,0.61749 0.0908,0.24188 0.22429,0.43979 0.2967,0.43979 0.0724,0 0.22114,-0.14807 0.33052,-0.32903 z m -4.52923,-0.68075 c -0.0908,-0.24188 -0.22482,-0.37866 -0.29788,-0.30396 -0.0731,0.0747 -0.0502,0.27261 0.0509,0.43979 0.10104,0.16717 0.23509,0.30395 0.29788,0.30395 0.0628,0 0.0399,-0.1979 -0.0509,-0.43978 z m 0.73996,0.0123 c 0,-0.0784 -0.0627,-0.1425 -0.13935,-0.1425 -0.0767,0 -0.13936,0.0641 -0.13936,0.1425 0,0.0784 0.0627,0.1425 0.13936,0.1425 0.0766,0 0.13935,-0.0641 0.13935,-0.1425 z m 3.90201,0 c 0,-0.0784 -0.0627,-0.1425 -0.13936,-0.1425 -0.0766,0 -0.13935,0.0641 -0.13935,0.1425 0,0.0784 0.0627,0.1425 0.13935,0.1425 0.0767,0 0.13936,-0.0641 0.13936,-0.1425 z m -5.28402,-2.99799 c 0.75922,-0.36361 1.3297,-0.71294 1.26774,-0.77629 -0.0619,-0.0634 -0.51884,0.0996 -1.01531,0.36212 -0.84529,0.44696 -0.89123,0.44682 -0.72269,-0.002 0.099,-0.26378 0.18061,-1.33479 0.18137,-2.38002 0.001,-1.57634 0.11526,-2.04594 0.66917,-2.75387 0.66076,-0.84446 0.67396,-0.84775 1.25284,-0.31207 0.32177,0.29776 0.58504,0.47974 0.58504,0.4044 0,-0.0754 -0.29911,-0.42433 -0.66469,-0.77551 -0.66469,-0.63851 -0.66469,-0.63851 -1.3239,0.30657 -0.52055,0.74629 -0.69247,1.44742 -0.81738,3.33333 -0.11757,1.77524 -0.27853,2.47825 -0.6271,2.73888 -0.25792,0.19284 -0.45439,0.59298 -0.43661,0.88919 0.025,0.4171 0.0593,0.43573 0.15173,0.0826 0.0657,-0.25077 0.74058,-0.75345 1.49979,-1.11706 z m 6.88663,0.74879 c -0.41878,-0.32506 -0.48775,-0.88253 -0.48775,-3.94244 0,-3.11252 -0.0694,-3.6541 -0.5483,-4.2766 -0.30157,-0.39202 -0.45834,-0.81462 -0.34839,-0.93911 0.10995,-0.12449 0.0517,-0.13955 -0.12933,-0.0335 -0.18107,0.1061 -0.79433,-0.12984 -1.36279,-0.5243 -0.56845,-0.39445 -1.17283,-0.71635 -1.34306,-0.71532 -0.17022,0.001 -0.68576,0.25669 -1.14564,0.56812 -0.45988,0.31143 -0.99292,0.56708 -1.18454,0.56811 -0.19161,0.001 -0.34839,-0.23514 -0.34839,-0.52483 0,-0.33711 0.39365,-0.70822 1.09355,-1.03094 0.60146,-0.27733 1.03827,-0.65156 0.9707,-0.83163 -0.0676,-0.18006 0.0607,-1.15892 0.28506,-2.17525 0.40792,-1.84787 0.40792,-1.84787 0.3532,0.21899 -0.0442,1.67139 0.0253,2.06721 0.36335,2.06869 0.22994,0.001 0.88841,0.45766 1.46326,1.01479 0.57484,0.55713 1.04518,0.87959 1.04518,0.71659 0,-0.16301 -0.31374,-0.50658 -0.6972,-0.76349 -0.38345,-0.25691 -0.81112,-0.86905 -0.95036,-1.3603 -0.13925,-0.49125 -0.26449,-0.66875 -0.27831,-0.39444 -0.0138,0.2743 -0.15056,0.49874 -0.30385,0.49874 -0.15508,0 -0.26244,-0.66373 -0.24203,-1.49623 0.0313,-1.27467 0.0677,-1.36962 0.24604,-0.64124 0.18132,0.74053 0.19735,0.70238 0.11974,-0.28499 -0.0671,-0.85393 0.0582,-1.30089 0.49933,-1.78123 0.58894,-0.64124 0.58894,-0.64124 -0.42983,-0.64124 -0.87215,0 -1.04572,-0.10977 -1.206,-0.76275 -0.10297,-0.41951 -0.0535,-1.12487 0.10984,-1.56747 0.23647,-0.6406 0.21872,-0.80473 -0.087,-0.80473 -0.21123,0 -0.51389,0.24807 -0.67258,0.55126 -0.15868,0.30319 -0.28852,0.64832 -0.28852,0.76696 0,0.11864 0.16925,-0.021 0.37612,-0.31026 0.34107,-0.47696 0.36453,-0.44525 0.25178,0.3403 -0.0684,0.47643 0.0129,1.12852 0.1807,1.44907 0.16777,0.32054 0.58751,0.63333 0.93276,0.69507 0.58251,0.10418 0.58986,0.1294 0.10209,0.35026 -0.30107,0.13631 -0.7099,0.11915 -0.95692,-0.0402 -0.23721,-0.153 -0.59756,-0.71846 -0.80078,-1.25659 -0.34554,-0.91499 -0.35889,-0.92299 -0.20591,-0.12343 0.09,0.47025 0.35997,1.07781 0.59998,1.35015 0.38253,0.43406 0.39294,0.75485 0.0843,2.59967 -0.33255,1.98793 -0.40594,2.13079 -1.32481,2.57884 -0.80384,0.39196 -0.9499,0.59654 -0.84118,1.17813 0.0816,0.43624 -0.0658,0.93645 -0.3875,1.31579 -0.43127,0.50846 -0.50939,1.02646 -0.46177,3.0621 0.0573,2.4501 0.0573,2.4501 0.15017,-0.0405 0.0928,-2.49059 0.0928,-2.49059 1.75433,-3.64431 1.59815,-1.10974 1.66254,-1.12887 1.68926,-0.50186 0.0278,0.65186 0.0278,0.65186 0.21313,-0.0239 0.18534,-0.67577 0.18534,-0.67577 1.57483,0.40105 0.76421,0.59226 1.48163,1.21697 1.59425,1.38826 0.11263,0.17129 0.20178,0.88856 0.19813,1.59392 -0.007,1.28248 -0.007,1.28248 -0.42158,0.30462 -0.22822,-0.53782 -0.55097,-1.14546 -0.71723,-1.35031 -0.24457,-0.30133 -0.45596,-0.26056 -1.10708,0.21353 -0.76365,0.55602 -0.8048,0.69426 -0.8048,2.70404 0,1.16493 -0.11785,2.11806 -0.26189,2.11806 -0.14404,0 -0.31109,-0.48093 -0.37122,-1.06873 -0.10933,-1.06874 -0.10933,-1.06874 -0.15618,0.11874 -0.0257,0.65312 -0.20363,1.25721 -0.39525,1.34242 -0.19161,0.0852 -0.0151,0.085 0.39223,-5.7e-4 0.53701,-0.11271 1.30327,0.1636 2.78715,1.00503 1.12559,0.63826 2.10924,1.15809 2.18589,1.15518 0.0766,-0.003 -0.0801,-0.17566 -0.3484,-0.3839 z m -2.64779,-1.52567 c -0.8957,-0.45583 -0.90582,-0.48379 -0.90582,-2.50257 0,-1.71063 0.0947,-2.1292 0.58401,-2.58202 0.57556,-0.53261 0.59171,-0.53073 1.11486,0.12989 0.4277,0.5401 0.53085,1.13489 0.53085,3.06123 0,1.31499 -0.0941,2.38269 -0.20904,2.37267 -0.11497,-0.01 -0.61666,-0.22567 -1.11486,-0.4792 z m -47.172487,8.12769 c 0,-0.25946 0.133767,-0.55627 0.297258,-0.6596 0.163492,-0.10331 0.375516,-0.10783 0.471162,-0.01 0.09565,0.0978 -0.03812,0.39462 -0.297258,0.65961 -0.434502,0.44428 -0.471162,0.44506 -0.471162,0.01 z m -5.853012,-0.50538 c 0,-0.15675 0.125421,-0.28499 0.278714,-0.28499 0.153294,0 0.278715,0.12824 0.278715,0.28499 0,0.15675 -0.125421,0.285 -0.278715,0.285 -0.153293,0 -0.278714,-0.12825 -0.278714,-0.285 z m 4.459438,0 c 0,-0.15675 0.125422,-0.28499 0.278715,-0.28499 0.153293,0 0.278715,0.12824 0.278715,0.28499 0,0.15675 -0.125422,0.285 -0.278715,0.285 -0.153293,0 -0.278715,-0.12825 -0.278715,-0.285 z m 19.649401,-0.47316 c -0.30659,-0.0852 -1.16422,-0.41903 -1.90585,-0.74177 -1.01088,-0.43992 -1.24412,-0.6465 -0.93175,-0.82525 0.246,-0.14077 0.35725,-0.47081 0.27161,-0.80571 -0.0798,-0.312 -0.0624,-1.01767 0.0385,-1.56815 0.18363,-1.00087 0.18363,-1.00087 5.02376,-1.00087 4.84012,0 4.84012,0 4.94902,1.78122 0.082,1.34077 0.005,1.86996 -0.31076,2.14011 -0.23082,0.19738 -0.86443,0.49716 -1.40804,0.66617 -0.54361,0.16901 -1.92904,0.35272 -3.07874,0.40825 -1.1497,0.0555 -2.3412,0.0312 -2.64779,-0.054 z m -1.30863,-3.13825 c -0.0475,-0.74415 -0.23862,-1.38319 -0.43334,-1.44873 -0.24806,-0.0835 -0.34839,0.29992 -0.34839,1.33145 0,1.12045 0.0982,1.44873 0.43334,1.44873 0.34227,0 0.41549,-0.27984 0.34839,-1.33145 z m -0.42711,-0.0935 c 0,-0.70537 0.0544,-0.99392 0.12079,-0.64124 0.0664,0.35268 0.0664,0.9298 0,1.28248 -0.0664,0.35268 -0.12079,0.0641 -0.12079,-0.64124 z m 1.73574,0 c 0,-0.73466 -0.14114,-1.28309 -0.34839,-1.35373 -0.24875,-0.0848 -0.3484,0.30241 -0.3484,1.35373 0,1.05132 0.0996,1.43851 0.3484,1.35373 0.20725,-0.0706 0.34839,-0.61908 0.34839,-1.35373 z m -0.34216,0 c 0,-0.70537 0.0543,-0.99392 0.12078,-0.64124 0.0664,0.35268 0.0664,0.9298 0,1.28248 -0.0664,0.35268 -0.12078,0.0641 -0.12078,-0.64124 z m 1.73573,0 c 0,-0.73466 -0.14114,-1.28309 -0.34839,-1.35373 -0.24874,-0.0848 -0.34839,0.30241 -0.34839,1.35373 0,1.05132 0.0996,1.43851 0.34839,1.35373 0.20725,-0.0706 0.34839,-0.61908 0.34839,-1.35373 z m -0.37406,-0.56999 c 0,-0.39187 0.0633,-0.55218 0.14058,-0.35625 0.0773,0.19594 0.0773,0.51656 0,0.71249 -0.0773,0.19594 -0.14058,0.0356 -0.14058,-0.35624 z m 1.62828,0.54624 c 0,-1.03136 -0.10037,-1.41504 -0.34839,-1.33178 -0.19162,0.0643 -0.38859,0.53608 -0.43771,1.04836 -0.0491,0.51228 -0.0217,1.11158 0.0609,1.33178 0.0826,0.2202 0.2796,0.40037 0.43771,0.40037 0.15977,0 0.28746,-0.64352 0.28746,-1.44873 z m 1.39358,-0.13557 c 0,-0.93503 -0.10922,-1.26566 -0.41808,-1.26566 -0.3073,0 -0.41807,0.32722 -0.41807,1.23498 0,0.67924 0.0802,1.31699 0.17823,1.41723 0.098,0.10024 0.28616,0.11404 0.41808,0.0307 0.13191,-0.0834 0.23984,-0.72112 0.23984,-1.41723 z m -0.48715,0.0168 c 0.003,-0.627 0.0602,-0.84993 0.12684,-0.49542 0.0667,0.3545 0.0641,0.8675 -0.006,1.13998 -0.0698,0.27248 -0.12431,-0.0176 -0.12121,-0.64456 z m 1.88072,0.11875 c 0,-1.03136 -0.10037,-1.41504 -0.34839,-1.33178 -0.19162,0.0643 -0.38859,0.53608 -0.43771,1.04836 -0.0491,0.51228 -0.0217,1.11158 0.0609,1.33178 0.0826,0.2202 0.2796,0.40037 0.43771,0.40037 0.15977,0 0.28746,-0.64352 0.28746,-1.44873 z m -0.48152,0.0238 c 0,-0.70537 0.0544,-0.99392 0.12079,-0.64124 0.0664,0.35268 0.0664,0.9298 0,1.28248 -0.0664,0.35268 -0.12079,0.0641 -0.12079,-0.64124 z m 1.87509,-0.0238 c 0,-1.03136 -0.10037,-1.41504 -0.34839,-1.33178 -0.19162,0.0643 -0.38859,0.53608 -0.43771,1.04836 -0.0491,0.51228 -0.0217,1.11158 0.0609,1.33178 0.0826,0.2202 0.27961,0.40037 0.43771,0.40037 0.15977,0 0.28746,-0.64352 0.28746,-1.44873 z m -0.48151,0.0238 c 0,-0.70537 0.0543,-0.99392 0.12078,-0.64124 0.0664,0.35268 0.0664,0.9298 0,1.28248 -0.0664,0.35268 -0.12078,0.0641 -0.12078,-0.64124 z m -24.509923,2.94495 c 0.102197,-0.10449 0.269426,-0.10449 0.371622,0 0.102194,0.1045 0.01858,0.19 -0.185811,0.19 -0.20439,0 -0.288004,-0.0855 -0.185811,-0.19 z m -8.175636,-0.97283 c 0,-0.72485 0.184961,-0.86365 2.220728,-1.66641 1.221401,-0.48164 2.295432,-0.8757 2.386736,-0.8757 0.0913,0 0.126707,0.4168 0.07867,0.92623 -0.08007,0.8492 -0.226425,0.97816 -1.759627,1.55054 -0.919759,0.34336 -1.531282,0.63192 -1.358939,0.64124 0.172344,0.009 0.850373,-0.1768 1.50673,-0.4136 0.65636,-0.23679 1.244928,-0.37782 1.307934,-0.3134 0.06301,0.0644 -0.36418,0.28163 -0.9493,0.48268 -0.58512,0.20105 -1.596897,0.38661 -2.248393,0.41234 -1.119944,0.0442 -1.184539,0.004 -1.184539,-0.74392 z m 5.016868,-0.11965 c 0,-0.0784 0.06271,-0.1425 0.139358,-0.1425 0.07665,0 0.139357,0.0641 0.139357,0.1425 0,0.0784 -0.06271,0.1425 -0.139357,0.1425 -0.07665,0 -0.139358,-0.0641 -0.139358,-0.1425 z m 16.181021,-1.63872 c -0.66512,-0.66618 -1.58546,-2.02549 -2.0452,-3.02069 -0.57894,-1.25324 -0.87758,-2.40538 -0.97154,-3.74812 -0.10316,-1.47436 0.006,-2.40611 0.45688,-3.89046 0.3259,-1.07348 1.03239,-2.56025 1.56999,-3.30391 0.5376,-0.74367 1.5725,-1.80174 2.29978,-2.35126 0.72728,-0.54952 2.01214,-1.21108 2.85526,-1.47013 0.84311,-0.25905 2.41088,-0.4641 3.48393,-0.45567 1.29663,0.0102 2.49177,0.22407 3.56326,0.6377 1.03261,0.39862 2.19487,1.17394 3.23283,2.15656 1.10776,1.0487 1.87642,2.10073 2.4291,3.32453 0.72161,1.59787 0.80854,2.09676 0.80854,4.64031 0,2.56391 -0.0806,3.01789 -0.80346,4.52316 -0.44191,0.92026 -1.3425,2.24845 -2.00133,2.95155 -0.65883,0.70309 -1.36336,1.22266 -1.56562,1.1546 -0.20317,-0.0684 -0.40534,-0.64019 -0.45176,-1.27779 -0.0552,-0.75791 0.0644,-1.30583 0.34839,-1.59622 0.23783,-0.24319 0.43242,-0.57958 0.43242,-0.74752 0,-0.16794 -0.12983,-0.30535 -0.28852,-0.30535 -0.19888,0 -0.19888,-0.17126 0,-0.55126 0.15869,-0.30319 0.28852,-0.98011 0.28852,-1.50427 0,-0.52974 -0.28739,-1.38188 -0.64707,-1.91864 -0.35589,-0.53109 -1.4514,-1.43044 -2.43445,-1.99855 -0.98306,-0.56811 -1.97244,-1.37007 -2.19862,-1.78213 -0.38476,-0.70094 -0.36709,-0.78677 0.2744,-1.33262 0.68566,-0.58342 0.68566,-0.58342 -0.0111,-0.59726 -0.38323,-0.008 -0.86897,-0.12538 -1.07941,-0.26169 -0.25004,-0.16195 -0.34187,-0.60487 -0.26501,-1.27812 0.0647,-0.56665 0.0368,-1.03027 -0.0619,-1.03027 -0.0988,0 -0.38712,0.23453 -0.64082,0.52118 -0.2537,0.28665 -0.46127,0.92062 -0.46127,1.40882 0,0.57806 0.20371,1.03353 0.58408,1.30595 0.3982,0.2852 0.52898,0.59582 0.41095,0.97606 -0.0952,0.30676 -0.43379,0.79909 -0.7524,1.09407 -0.31861,0.29498 -1.27824,0.92107 -2.13251,1.39131 -0.85428,0.47025 -1.78945,1.18447 -2.07817,1.58717 -0.3485,0.48609 -0.51176,1.15662 -0.48575,1.99497 0.0216,0.69453 0.0471,1.61547 0.0568,2.04653 0.01,0.43105 0.15636,0.78356 0.32598,0.78335 0.19961,-2.6e-4 0.27471,0.55267 0.21292,1.56747 -0.0762,1.25122 -0.19174,1.56787 -0.57211,1.56787 -0.26215,0 -1.02082,-0.54506 -1.68594,-1.21123 z m -20.300652,-3.51735 c 0.07827,-3.65968 0.07827,-3.65968 1.820234,-4.9016 1.741968,-1.24194 1.741968,-1.24194 1.799255,2.55539 0.05728,3.79734 0.05728,3.79734 0.209036,0.004 0.151749,-3.79286 0.151749,-3.79286 1.684681,-2.69896 1.429191,1.01988 1.53852,1.18013 1.615512,2.3679 0.08258,1.27399 0.08258,1.27399 -0.669584,0.15646 -0.752168,-1.11754 -0.752168,-1.11754 -1.545837,-0.20925 -0.696349,0.79691 -0.787205,1.10866 -0.740966,2.54251 0.0527,1.63423 0.0527,1.63423 0.151507,0.0558 0.06916,-1.1049 0.28942,-1.82281 0.734243,-2.39324 0.635437,-0.81488 0.635437,-0.81488 1.520783,0.65641 0.799683,1.32894 0.880692,1.67081 0.83724,3.53323 -0.04811,2.06194 -0.04811,2.06194 -0.230609,0.20947 -0.182502,-1.85247 -0.182502,-1.85247 -0.230608,-0.0849 -0.04811,1.76757 -0.04811,1.76757 -1.302324,1.29225 -0.896121,-0.33961 -1.263448,-0.64085 -1.286548,-1.05509 -0.02071,-0.37123 -0.07455,-0.426 -0.149706,-0.15227 -0.06455,0.23512 -0.83389,0.66692 -1.709634,0.95955 -0.875747,0.29263 -1.815616,0.59718 -2.088603,0.67678 -0.460359,0.13423 -0.490664,-0.12056 -0.418072,-3.51495 z m 1.629222,-2.8352 c 0.166075,-0.10495 0.606224,0.10147 0.978111,0.45871 0.371884,0.35724 0.676154,0.55154 0.676154,0.43178 0,-0.11976 -0.282199,-0.45847 -0.627109,-0.75268 -0.344909,-0.29422 -0.75253,-0.53763 -0.905823,-0.5409 -0.153293,-0.003 -0.560914,0.43953 -0.905824,0.984 -0.344909,0.54448 -0.621564,1.15207 -0.614789,1.35021 0.0068,0.19813 0.256443,-0.11238 0.554821,-0.69003 0.298378,-0.57764 0.678384,-1.13614 0.844459,-1.24109 z m 23.47885,3.93101 c 1.65624,-0.0505 4.29009,-0.0503 5.85302,2.8e-4 1.56292,0.0507 0.20782,0.092 -3.01134,0.0918 -3.21915,-2.3e-4 -4.49791,-0.0417 -2.84168,-0.0922 z m -2.53751,-0.69917 c -0.18396,-0.18809 -0.33254,-0.92552 -0.33019,-1.63872 0.003,-0.99885 0.0729,-1.19853 0.30289,-0.86924 0.23988,0.3434 0.27157,0.30128 0.16108,-0.21414 -0.0885,-0.41275 -0.0305,-0.57398 0.16255,-0.45199 0.19163,0.12111 0.23375,0.0129 0.11655,-0.2994 -0.10094,-0.26898 -0.0743,-0.42001 0.0592,-0.33563 0.13351,0.0844 0.55948,-0.10134 0.94659,-0.4127 0.3871,-0.31135 0.86173,-0.5661 1.05471,-0.5661 0.19299,0 0.2669,-0.0859 0.16426,-0.19084 -0.10265,-0.10496 0.29912,-0.48703 0.89283,-0.84905 0.59371,-0.36203 1.23664,-1.04623 1.42874,-1.52046 0.34928,-0.86223 0.34928,-0.86223 0.83423,0.0624 0.30187,0.57554 1.00486,1.19471 1.86207,1.64004 0.75741,0.39348 1.62747,0.90779 1.93346,1.14291 0.30599,0.23512 0.76953,0.74459 1.03009,1.13215 0.26056,0.38756 0.47375,1.13342 0.47375,1.65746 0,0.52405 -0.12983,1.20087 -0.28852,1.50406 -0.26909,0.51412 -0.63145,0.55126 -5.3792,0.55126 -3.5878,0 -5.18942,-0.10097 -5.42513,-0.342 z m -18.619821,-8.89636 c -0.08327,-0.22188 -0.110011,-0.76693 -0.05943,-1.21123 0.08442,-0.74156 0.11798,-0.70848 0.40922,0.40342 0.182899,0.69827 0.208069,1.21123 0.05943,1.21123 -0.141805,0 -0.325952,-0.18153 -0.40922,-0.40342 z m -1.162667,-3.74517 c -0.340696,-0.24401 -0.619447,-0.73249 -0.619447,-1.08551 0,-0.35303 0.190056,-0.89081 0.422348,-1.19507 0.402626,-0.52738 0.414533,-0.51786 0.255016,0.20398 -0.09203,0.41645 -0.02684,1.02563 0.144887,1.35373 0.171722,0.32809 0.49594,0.59653 0.720486,0.59653 0.224547,0 0.408267,0.12825 0.408267,0.285 0,0.15674 -0.160224,0.28499 -0.356055,0.28499 -0.195833,0 -0.634809,-0.19964 -0.975502,-0.44365 z"
        id="path2917" inkscape:export-filename=".\muslimEye--dark.svg" inkscape:export-xdpi="96"
        inkscape:export-ydpi="96" />
    </g>
  </g>
</svg>